<svg xmlns="http://www.w3.org/2000/svg" viewBox="0 0 300 200">
  <g class="blend-screen text-glitch-green">
    <polygon class="fill-current" points="264.64 37.79 264.64 41.22 264.64 44.64 264.64 48.07 264.64 51.5 266.64 51.5 266.64 54.93 266.64 58.36 266.64 61.79 270.64 61.79 270.64 65.22 270.64 68.65 266.64 68.65 266.64 72.08 266.64 75.5 261.64 75.5 261.64 78.93 266.64 78.93 266.64 82.36 266.64 85.79 266.64 89.22 269.64 89.22 269.64 91.71 279.08 91.71 279.08 89.22 276.08 89.22 276.08 85.79 276.08 82.36 276.08 78.93 271.08 78.93 271.08 75.5 276.08 75.5 276.08 72.08 276.08 68.65 280.08 68.65 280.08 65.22 280.08 61.79 276.08 61.79 276.08 58.36 276.08 54.93 276.08 51.5 274.08 51.5 274.08 48.07 274.08 44.64 274.08 41.22 274.08 37.79 274.08 37.14 283 37.14 283 34.36 285 34.36 285 30.93 285 27.5 285 27.44 257.71 27.44 257.71 27.5 257.71 30.93 257.71 34.36 255.71 34.36 255.71 37.14 264.64 37.14 264.64 37.79"/>
    <path class="fill-current" d="M97.83,48.07c0-.45,0-.92,0-1.4,0-.7,0-1.37-.06-2a29.24,29.24,0,0,0-.39-3.42,22.89,22.89,0,0,0-.87-3.43,17.25,17.25,0,0,0-1.6-3.43h2a13.53,13.53,0,0,0-2.33-2.9c-.2-.19-.42-.36-.63-.53a15.64,15.64,0,0,0-9.13-3.43c-.53,0-1.07-.06-1.61-.06H73.8v6.92h-2V51.5h2V61.79h4v6.86h-4V75.5h-5v3.43h5V89.22h3v2.49h9.44V89.22h-3V78.93h-5V75.5h5V68.65h4V66a18.62,18.62,0,0,0,5.4-.79,15,15,0,0,0,6-3.41l0,0h-4a14.69,14.69,0,0,0,2.65-3.43,18.24,18.24,0,0,0,1.46-3.43,23.12,23.12,0,0,0,.77-3.43h-2A27.59,27.59,0,0,0,97.83,48.07ZM89,54.37a3.72,3.72,0,0,1-.48.56c-1.1,1.06-2.8,1.45-5.29,1.45V51.5h-2V37.05a8.93,8.93,0,0,1,4,.74A4.3,4.3,0,0,1,87,39.33a6.05,6.05,0,0,1,.8,1.89,16.56,16.56,0,0,1,.46,3.42c0,.74.06,1.53.06,2.38,0,.37,0,.71,0,1a26.76,26.76,0,0,1-.25,3.43h2A6.41,6.41,0,0,1,89,54.37Z"/>
    <path class="fill-current" d="M31.45,54.93v6.86h4v6.86h-4V75.5h-5v3.43h5V89.22h3v2.49H43.2V89.22h-3V78.93h5l.52,3.43.51,3.43.51,3.43h3l.37,2.49h4l.37-2.49h-3L52,85.79l.51-3.43L53,78.93h5V89.22h3v2.49h8.75V89.22h-3V78.93h-5V75.5h5V68.65h4V61.79h-4V51.5h-2V34.36h2V27.44H55.23v.06l-.65,3.43-.65,3.43h-2l-.66,3.43-.65,3.43L50,44.64l-.66,3.43-.65,3.43h2L50,54.93l-.36,1.89-.2,1.54-.24,1.87H49l-.24-1.87-.2-1.54-.36-1.89-.65-3.43h-2l-.66-3.43-.65-3.43-.65-3.42L43,37.79l-.65-3.43h2l-.65-3.43L43,27.5l0-.06H31.45v6.92h-2V51.5h2ZM59.08,65.22l.52-3.43H62v6.86H58.57ZM56.62,54.93l.51-3.43H58V61.79H55.6l.51-3.43Zm-1.46-3.62.35-2.71H56v2.9h-.9Zm-1.1,20.77.51-3.43H58V75.5H53.55ZM48.55,75.5H53v3.43H48ZM44.2,65.22V61.79h2.43l.52,3.43.51,3.43H44.2Zm-4-6.86V51.5h.9l.51,3.43.51,3.43.51,3.43H40.2Zm0,13.72V68.65h3.46l.51,3.43.51,3.42H40.2Zm0,6.85h-5V75.5h4.48Zm-2-30.33h.52l.35,2.71,0,.19h-.9Z"/>
    <polygon class="fill-current" points="199.62 54.93 199.62 58.36 199.62 61.79 203.62 61.79 203.62 65.22 203.62 68.65 199.62 68.65 199.62 72.08 199.62 75.5 194.62 75.5 194.62 78.93 199.62 78.93 199.62 82.36 199.62 85.79 199.62 89.22 202.62 89.22 202.62 91.71 224.21 91.71 224.21 89.22 221.21 89.22 221.21 85.79 221.21 82.36 221.21 82.01 209.06 82.01 209.06 78.93 204.06 78.93 204.06 75.5 209.06 75.5 209.06 72.08 209.06 68.65 213.06 68.65 213.06 65.22 213.06 64.34 221.8 64.34 221.8 61.79 217.8 61.79 217.8 58.36 217.8 54.93 217.8 54.02 209.06 54.02 209.06 51.5 207.06 51.5 207.06 48.07 207.06 44.64 207.06 41.22 207.06 37.79 207.06 37.14 219.21 37.14 219.21 34.36 221.21 34.36 221.21 30.93 221.21 27.5 221.21 27.44 199.62 27.44 199.62 27.5 199.62 30.93 199.62 34.36 197.62 34.36 197.62 37.79 197.62 41.22 197.62 44.64 197.62 48.07 197.62 51.5 199.62 51.5 199.62 54.93"/>
    <path class="fill-current" d="M226.48,54.93v6.86h4v6.86h-4V75.5h-5v3.43h5V89.22h3v2.49h8.65V89.22h-3V78.93h-5V75.5h5V68.65h4V61.79h2.3l.94,3.43.94,3.43h-4l.94,3.43.94,3.42h-5l.94,3.43h5l.94,3.43.94,3.43.94,3.43h3l.68,2.49H257V89.22h-3V78.93h-5V75.5h5V68.65h4V61.79h-4V51.5h-2V34.36h2V27.44h-8.66v6.92h-2V51.5h2V61.79h-1.09l-.22-.86-.71-2.57-.94-3.43-.94-3.43h-2l-.94-3.43-.94-3.43-.94-3.42-.94-3.43-.94-3.43h2l-.94-3.43-.94-3.43,0-.06h-8.39v6.92h-2V51.5h2Zm22.89,6.86V63.9h-.53l-.56-2.11Zm-14.24-3.43V55.24h.53l.79,3,0,.14.94,3.43h-2.3Z"/>
    <polygon class="fill-current" points="15 82.36 15 85.79 15 89.22 18 89.22 18 91.71 27.45 91.71 27.45 89.22 24.45 89.22 24.45 85.79 24.45 82.36 24.45 78.93 19.45 78.93 19.45 75.5 24.45 75.5 24.45 72.08 24.45 68.65 28.45 68.65 28.45 65.22 28.45 61.79 24.45 61.79 24.45 58.36 24.45 54.93 24.45 51.5 22.45 51.5 22.45 48.07 22.45 44.64 22.45 41.22 22.45 37.79 22.45 34.36 24.45 34.36 24.45 30.93 24.45 27.5 24.45 27.44 15 27.44 15 27.5 15 30.93 15 34.36 13 34.36 13 37.79 13 41.22 13 44.64 13 48.07 13 51.5 15 51.5 15 54.93 15 58.36 15 61.79 19 61.79 19 65.22 19 68.65 15 68.65 15 72.08 15 75.5 10 75.5 10 78.93 15 78.93 15 82.36"/>
    <polygon class="fill-current" points="130.41 82.36 130.41 85.79 130.41 89.22 133.41 89.22 133.41 91.71 155.01 91.71 155.01 89.22 152.01 89.22 152.01 85.79 152.01 82.36 152.01 82.01 139.85 82.01 139.85 78.93 134.85 78.93 134.85 75.5 139.85 75.5 139.85 72.08 139.85 68.65 143.85 68.65 143.85 65.22 143.85 64.34 152.6 64.34 152.6 61.79 148.6 61.79 148.6 58.36 148.6 54.93 148.6 54.02 139.85 54.02 139.85 51.5 137.85 51.5 137.85 48.07 137.85 44.64 137.85 41.22 137.85 37.79 137.85 37.14 150.01 37.14 150.01 34.36 152.01 34.36 152.01 30.93 152.01 27.5 152.01 27.44 130.41 27.44 130.41 27.5 130.41 30.93 130.41 34.36 128.41 34.36 128.41 37.79 128.41 41.22 128.41 44.64 128.41 48.07 128.41 51.5 130.41 51.5 130.41 54.93 130.41 58.36 130.41 61.79 134.41 61.79 134.41 65.22 134.41 68.65 130.41 68.65 130.41 72.08 130.41 75.5 125.41 75.5 125.41 78.93 130.41 78.93 130.41 82.36"/>
    <path class="fill-current" d="M183.85,85.79v3.43h3v2.49h8.75V89.22h-3V78.93h-5V75.5h5V68.65h4V61.79h-4V51.5h-2V34.36h2V27.44H181.05v.06l-.65,3.43-.65,3.43h-2l-.66,3.43-.65,3.43-.65,3.42-.66,3.43-.65,3.43h2l-.65,3.43-.36,1.89-.2,1.54L175,60.23h-.17l-.24-1.87-.2-1.54-.36-1.89-.65-3.43h-2l-.66-3.43-.65-3.43-.65-3.42-.66-3.43-.65-3.43h2l-.65-3.43-.65-3.43,0-.06H157.27v6.92h-2V51.5h2V61.79h4v6.86h-4V75.5h-5v3.43h5V89.22h3v2.49H169V89.22h-3V78.93h5l.52,3.43.51,3.43.51,3.43h3l.37,2.49h4l.37-2.49h-3l.51-3.43.51-3.43.51-3.43h5v6.86ZM164,48.6h.52l.35,2.71,0,.19H164Zm-3,30.33V75.5h4.48l.51,3.43Zm5-20.57V51.5h.9l.51,3.43.51,3.43.51,3.43H166Zm0,17.14V68.65h3.46l.51,3.43.51,3.42Zm4-6.85V61.79h2.43l.52,3.43.51,3.43Zm8.83,10.28h-5l.52-3.43h4.48Zm6.05-13.71.52-3.43h2.43v6.86h-3.46Zm-2.46-10.29L183,51.5h.9V61.79h-2.43l.51-3.43ZM181,51.31l.35-2.71h.52v2.9H181ZM179.37,75.5l.51-3.42.51-3.43h3.46V75.5Z"/>
    <polygon class="fill-current" points="129.55 91.71 129.55 89.22 126.55 89.22 126.55 85.79 126.55 82.97 114.04 82.97 114.04 82.36 114.04 78.93 109.04 78.93 109.04 75.5 114.04 75.5 114.04 72.08 114.04 68.65 118.04 68.65 118.04 65.22 118.04 61.79 114.04 61.79 114.04 58.36 114.04 54.93 114.04 51.5 112.04 51.5 112.04 48.07 112.04 44.64 112.04 41.22 112.04 37.79 112.04 34.36 114.04 34.36 114.04 30.93 114.04 27.5 114.04 27.44 104.59 27.44 104.59 27.5 104.59 30.93 104.59 34.36 102.59 34.36 102.59 37.79 102.59 41.22 102.59 44.64 102.59 48.07 102.59 51.5 104.59 51.5 104.59 54.93 104.59 58.36 104.59 61.79 108.59 61.79 108.59 65.22 108.59 68.65 104.59 68.65 104.59 72.08 104.59 75.5 99.59 75.5 99.59 78.93 104.59 78.93 104.59 82.36 104.59 85.79 104.59 89.22 107.59 89.22 107.59 91.71 129.55 91.71"/>
    <path class="fill-current" d="M281.67,130.85V117.14h-9v-6.86h9v-6H270.13l-.4,2.08-.65,3.43-.09.49h-9l-.66,3.43-.65,3.43h-7.35l-.65-3.43-.65-3.43h9l-.1-.49-.65-3.43-.39-2.08H246.34v6h-9v6.86h9v13.71h5v6.86h-5v6.86h-1v10.29h1v10.28h3v3.42h8.75v-3.42h-3V154.86h-1V144.57h1v-6.86h2.3l.51,3.43.51,3.43h-1l.51,3.43.51,3.43.52,3.43h1l.51,3.42.51,3.43.51,3.43h3l.51,3.42h4l.51-3.42h-3l.51-3.43.51-3.43.51-3.42h-1l.52-3.43.51-3.43.51-3.43h1l.51-3.43.51-3.43h2.31v6.86h-1v10.29h1v10.28h3v3.42h8.74v-3.42h-3V154.86h-1V144.57h1v-6.86h5v-6.86Zm-26.58,0v-5.41h.52l.25,2,.1.74.4,2.69Zm5,6.86v-6.86h1.27l.51,3.43.52,3.43ZM267,120.57l-.66,3.43-.65,3.42-.65,3.43H263l-.66-3.43-.65-3.42-.65-3.43-.66-3.43h7.35Zm2.5,13.1-.08.61-.36,2.79h-.17l-.36-2.79-.08-.61-.53-2.82h2.12Zm3.4-6.25v3.43h-1.28l.4-2.69.1-.74.25-2h.53Zm5,6.86v3.43h-2.31l.52-3.43.51-3.43h1.28Z"/>
    <polygon class="fill-current" points="119.06 134.28 119.06 137.71 114.06 137.71 114.06 140.06 172.39 140.06 172.39 137.71 177.39 137.71 177.39 134.28 177.39 132.77 119.06 132.77 119.06 134.28"/>
    <path class="fill-current" d="M82.38,137.71H79.84v-6.86h-5V117.14h6.3v9.51h9.44v-9.51h-9v-.37a18.84,18.84,0,0,0-.35-3.06,16.12,16.12,0,0,0-1-3.43h9l-.17-.42a.43.43,0,0,1,0-.07,13,13,0,0,0-2.29-3.43,10.57,10.57,0,0,0-7.31-3.42c-.45,0-.9-.07-1.38-.07s-.93,0-1.38.07a11.38,11.38,0,0,0-6,2.12,9.83,9.83,0,0,0-1.42,1.3A13,13,0,0,0,67,109.79a.43.43,0,0,1,0,.07l-.17.42H59v-6.71H50.34v6.71H57.8a16.72,16.72,0,0,0-1,3.43,20,20,0,0,0-.35,3.06v.37H50.34v13.71h-3l-.94-3.43L45.45,124l-.94-3.43-.95-3.43H50v-6.86H41.68l-.13-.49-.94-3.43-.77-2.79H31.45v6.71h-7v-6.71H15v6.71H6v6.86h9v13.71h5v6.86H15v6.86H14v10.29h1v10.28h3v2.7h9.45v-2.7h-3V154.86h-1V144.57h1v-6.86h5v-6.86h-5V117.14h7v13.71h5v6.86h-5v6.86h-1v10.29h1v10.28h3v2.7h8.66v-2.7h-3V154.86h-1V144.57h1v-6.86h2.23l.94,3.43.94,3.43h-1l.94,3.43.94,3.43.94,3.43h1l.94,3.42.94,3.43.94,3.43h3l.74,2.7H62v-2.7H59V154.86H58V144.57h1v-6.86h5v-6.86H59V117.14h6.4v13.71h5v6.86h-5v6.86h-1v10.29h1a19.94,19.94,0,0,0,.19,3.42,14.64,14.64,0,0,0,.86,3.36l0,.07a12.37,12.37,0,0,0,2.07,3.43h3a10.81,10.81,0,0,0,1.22,1.22,9.6,9.6,0,0,0,6.73,2.18,9.25,9.25,0,0,0,7-3.4H87l1,2.7h5.59v-2.7h-3V154.86h-1V144.57h1v-6.86h5v-1.87H82.38Zm-59.93-24v3.43h-7v-6.86h7Zm18.89,0v3.43H34.56l-.94-3.43-.94-3.43h8.66Zm3.77,24v-6.34h.52l.77,2.91,0,.07.92,3.36ZM50.34,140h-.52l-.62-2.32h1.14Zm5-5.75v3.43H54.2l-.17-.65-.76-2.78-.94-3.43h3Zm16.8-17.14h-6.3v-.37a6.77,6.77,0,0,1,.35-2.36,5.18,5.18,0,0,1,.29-.7,2.82,2.82,0,0,1,4.43-1,4.91,4.91,0,0,1,.62,1,6.65,6.65,0,0,1,.61,3.06Zm9,27.43h-1v10.29h1v.57a6.1,6.1,0,0,1-.35,2.35c-.05.18-.1.34-.16.5A2.63,2.63,0,0,1,78,160.15a2.56,2.56,0,0,1-1.84-.7,4.65,4.65,0,0,1-.77-1.17,6.55,6.55,0,0,1-.54-2.85v-.57h-1V144.57h1v-6.86h2.54v6.08h3.76Zm2.71,20.21.13.36h-.45C83.64,165,83.75,164.91,83.85,164.78Z"/>
    <polygon class="fill-current" points="242.48 161.71 242.48 159.81 229.97 159.81 229.97 158.28 229.97 154.86 228.97 154.86 228.97 151.43 228.97 148 228.97 144.57 229.97 144.57 229.97 141.14 229.97 137.71 234.97 137.71 234.97 134.28 234.97 130.85 229.97 130.85 229.97 127.42 229.97 124 229.97 120.57 229.97 117.14 220.97 117.14 220.97 113.71 220.97 110.28 229.97 110.28 229.97 109.79 229.97 106.36 229.97 104.28 220.53 104.28 220.53 106.36 220.53 109.79 220.53 110.28 215.26 110.28 215.26 109.79 215.26 106.36 215.26 104.28 193.67 104.28 193.67 106.36 193.67 109.79 193.67 110.28 184.67 110.28 184.67 113.71 184.67 117.14 193.67 117.14 193.67 120.57 193.67 124 193.67 127.42 193.67 130.85 198.67 130.85 198.67 134.28 198.67 137.71 193.67 137.71 193.67 141.14 193.67 144.57 192.67 144.57 192.67 148 192.67 151.43 192.67 154.86 193.67 154.86 193.67 158.28 193.67 161.71 193.67 165.14 196.67 165.14 196.67 168.56 218.26 168.56 218.26 165.14 215.26 165.14 215.26 161.71 215.26 158.85 203.11 158.85 203.11 158.28 203.11 154.86 202.11 154.86 202.11 151.43 202.11 148 202.11 144.57 203.11 144.57 203.11 141.19 211.85 141.19 211.85 141.14 211.85 137.71 216.85 137.71 216.85 134.28 216.85 130.87 208.11 130.87 208.11 130.85 203.11 130.85 203.11 127.42 203.11 124 203.11 120.57 203.11 117.14 194.11 117.14 194.11 113.99 206.26 113.99 206.26 113.71 206.26 110.28 211.53 110.28 211.53 113.71 211.53 117.14 220.53 117.14 220.53 120.57 220.53 124 220.53 127.42 220.53 130.85 225.53 130.85 225.53 134.28 225.53 137.71 220.53 137.71 220.53 141.14 220.53 144.57 219.53 144.57 219.53 148 219.53 151.43 219.53 154.86 220.53 154.86 220.53 158.28 220.53 161.71 220.53 165.14 223.53 165.14 223.53 168.56 245.48 168.56 245.48 165.14 242.48 165.14 242.48 161.71"/>
  </g>
  <g class="blend-screen text-glitch-red">
    <polygon class="fill-current" points="261.64 41.22 261.64 44.64 261.64 48.07 261.64 51.5 263.64 51.5 263.64 54.93 263.64 58.36 263.64 61.79 267.64 61.79 267.64 65.22 267.64 68.65 263.64 68.65 263.64 72.08 263.64 75.5 258.64 75.5 258.64 78.93 263.64 78.93 263.64 82.36 263.64 85.79 263.64 89.22 266.64 89.22 266.64 92.65 266.64 93.71 276.08 93.71 276.08 92.65 276.08 89.22 273.08 89.22 273.08 85.79 273.08 82.36 273.08 78.93 268.08 78.93 268.08 75.5 273.08 75.5 273.08 72.08 273.08 68.65 277.08 68.65 277.08 65.22 277.08 61.79 273.08 61.79 273.08 58.36 273.08 54.93 273.08 51.5 271.08 51.5 271.08 48.07 271.08 44.64 271.08 41.22 271.08 39.14 280 39.14 280 37.79 280 34.36 282 34.36 282 30.93 282 29.44 254.71 29.44 254.71 30.93 254.71 34.36 252.71 34.36 252.71 37.79 252.71 39.14 261.64 39.14 261.64 41.22"/>
    <path class="fill-current" d="M28.45,54.93v6.86h4v6.86h-4V75.5h-5v3.43h5V89.22h3v4.49H40.2V89.22h-3V78.93h4.7l.51,3.43.51,3.43.51,3.43h3l.51,3.43.16,1.06h4l.15-1.06.52-3.43h-3l.51-3.43.51-3.43.51-3.43H55V89.22h3v4.49h8.75V89.22h-3V78.93h-5V75.5h5V68.65h4V61.79h-4V51.5h-2V34.36h2V29.44H52.23L52,30.93l-.65,3.43h-2l-.66,3.43L48,41.22l-.65,3.42-.65,3.43L46,51.5h2l-.65,3.43-.65,3.43-.09.46-.38,3H46l-.38-3-.09-.46-.65-3.43L44.2,51.5h-2l-.66-3.43-.65-3.43-.65-3.42-.66-3.43-.65-3.43h2l-.65-3.43L40,29.44H28.45v4.92h-2V51.5h2ZM56.38,65.22l.51-3.43H59v6.86H55.87ZM53.92,54.93l.24-1.62.23-1.81H55V61.79H52.89l.52-3.43ZM52.51,50.6H53v.9h-.64ZM51.36,72.08l.51-3.43H55V75.5H50.85Zm-1.1-10.29-.06.44H50L50,61.79ZM45.85,75.5H50v3.43h-4.7ZM41.2,65.22V61.79h2.13l.52,3.43.51,3.43H41.2Zm-4-6.86V51.5h.64l.23,1.81.24,1.62.51,3.43.51,3.43H37.2Zm0,13.72V68.65h3.16l.51,3.43.51,3.42H37.2Zm-.3,6.85H32.2V75.5h4.18ZM35.2,50.6h.52l.12.9H35.2Z"/>
    <polygon class="fill-current" points="196.62 54.93 196.62 58.36 196.62 61.79 200.62 61.79 200.62 65.22 200.62 68.65 196.62 68.65 196.62 72.08 196.62 75.5 191.62 75.5 191.62 78.93 196.62 78.93 196.62 82.36 196.62 85.79 196.62 89.22 199.62 89.22 199.62 92.65 199.62 93.71 221.21 93.71 221.21 92.65 221.21 89.22 218.21 89.22 218.21 85.79 218.21 84.01 206.06 84.01 206.06 82.36 206.06 78.93 201.06 78.93 201.06 75.5 206.06 75.5 206.06 72.08 206.06 68.65 210.06 68.65 210.06 66.34 218.8 66.34 218.8 65.22 218.8 61.79 214.8 61.79 214.8 58.36 214.8 56.02 206.06 56.02 206.06 54.93 206.06 51.5 204.06 51.5 204.06 48.07 204.06 44.64 204.06 41.22 204.06 39.14 216.21 39.14 216.21 37.79 216.21 34.36 218.21 34.36 218.21 30.93 218.21 29.44 196.62 29.44 196.62 30.93 196.62 34.36 194.62 34.36 194.62 37.79 194.62 41.22 194.62 44.64 194.62 48.07 194.62 51.5 196.62 51.5 196.62 54.93"/>
    <path class="fill-current" d="M223.48,54.93v6.86h4v6.86h-4V75.5h-5v3.43h5V89.22h3v4.49h8.65V89.22h-3V78.93h-5V75.5h5V68.65h3.63l.94,3.43.94,3.42h-5l.94,3.43h5l.94,3.43.94,3.43.94,3.43h3l.94,3.43.29,1.06H254V89.22h-3V78.93h-5V75.5h5V68.65h4V61.79h-4V51.5h-2V34.36h2V29.44h-8.66v4.92h-2V51.5h2V61.79h-1.63l-.94-3.43-.94-3.43-.94-3.43h-2L235,48.07,234,44.64l-.94-3.42-.94-3.43-.94-3.43h2l-.94-3.43-.41-1.49h-8.39v4.92h-2V51.5h2Zm22.89,6.86V65.9h-.53l-.18-.68-.6-2.29-.32-1.14Zm-10.24,3.43V61.79h1.75l.94,3.43.94,3.43h-3.63Zm-4-6.86V57.24h.53l.3,1.12.49,1.86.43,1.57h-1.75Z"/>
    <path class="fill-current" d="M93.37,61.79a16.67,16.67,0,0,0,1.86-3.43,22,22,0,0,0,1-3.43,28.07,28.07,0,0,0,.48-3.43h-2c.08-.9.12-1.84.12-2.83,0-.2,0-.4,0-.6a33.25,33.25,0,0,0-.23-3.43A25.64,25.64,0,0,0,94,41.22a18.65,18.65,0,0,0-1.25-3.43,14.65,14.65,0,0,0-2.25-3.43h2a12.28,12.28,0,0,0-.86-.9,13.42,13.42,0,0,0-3.8-2.53,18.27,18.27,0,0,0-7.57-1.49H70.8v4.92h-2V51.5h2V61.79h4v6.86h-4V75.5h-5v3.43h5V89.22h3v4.49h9.44V89.22h-3V78.93h-5V75.5h5V68.65h4V68a16.89,16.89,0,0,0,9.59-2.79,14.88,14.88,0,0,0,1.78-1.41,14.41,14.41,0,0,0,1.76-2Zm-6.64-6.86A5,5,0,0,1,86,56.37c-.94,1.34-2.53,1.89-5,2l-.82,0V51.5h-2V39.05c2.81,0,4.62.67,5.68,2.17a.87.87,0,0,1,.09.11,7.82,7.82,0,0,1,1.08,3.31,28.23,28.23,0,0,1,.23,3.43c0,.31,0,.63,0,1,0,.91,0,1.73-.06,2.48h2A13.7,13.7,0,0,1,86.73,54.93Z"/>
    <polygon class="fill-current" points="12 82.36 12 85.79 12 89.22 15 89.22 15 92.65 15 93.71 24.45 93.71 24.45 92.65 24.45 89.22 21.45 89.22 21.45 85.79 21.45 82.36 21.45 78.93 16.45 78.93 16.45 75.5 21.45 75.5 21.45 72.08 21.45 68.65 25.45 68.65 25.45 65.22 25.45 61.79 21.45 61.79 21.45 58.36 21.45 54.93 21.45 51.5 19.45 51.5 19.45 48.07 19.45 44.64 19.45 41.22 19.45 37.79 19.45 34.36 21.45 34.36 21.45 30.93 21.45 29.44 12 29.44 12 30.93 12 34.36 10 34.36 10 37.79 10 41.22 10 44.64 10 48.07 10 51.5 12 51.5 12 54.93 12 58.36 12 61.79 16 61.79 16 65.22 16 68.65 12 68.65 12 72.08 12 75.5 7 75.5 7 78.93 12 78.93 12 82.36"/>
    <polygon class="fill-current" points="127.41 82.36 127.41 85.79 127.41 89.22 130.41 89.22 130.41 92.65 130.41 93.71 152.01 93.71 152.01 92.65 152.01 89.22 149.01 89.22 149.01 85.79 149.01 84.01 136.85 84.01 136.85 82.36 136.85 78.93 131.85 78.93 131.85 75.5 136.85 75.5 136.85 72.08 136.85 68.65 140.85 68.65 140.85 66.34 149.6 66.34 149.6 65.22 149.6 61.79 145.6 61.79 145.6 58.36 145.6 56.02 136.85 56.02 136.85 54.93 136.85 51.5 134.85 51.5 134.85 48.07 134.85 44.64 134.85 41.22 134.85 39.14 147.01 39.14 147.01 37.79 147.01 34.36 149.01 34.36 149.01 30.93 149.01 29.44 127.41 29.44 127.41 30.93 127.41 34.36 125.41 34.36 125.41 37.79 125.41 41.22 125.41 44.64 125.41 48.07 125.41 51.5 127.41 51.5 127.41 54.93 127.41 58.36 127.41 61.79 131.41 61.79 131.41 65.22 131.41 68.65 127.41 68.65 127.41 72.08 127.41 75.5 122.41 75.5 122.41 78.93 127.41 78.93 127.41 82.36"/>
    <path class="fill-current" d="M180.85,85.79v3.43h3v4.49h8.75V89.22h-3V78.93h-5V75.5h5V68.65h4V61.79h-4V51.5h-2V34.36h2V29.44H178.05l-.28,1.49-.65,3.43h-2l-.66,3.43-.65,3.43-.65,3.42-.65,3.43-.66,3.43h2l-.65,3.43-.65,3.43-.09.46-.38,3h-.29l-.38-3-.09-.46-.65-3.43L170,51.5h-2l-.66-3.43-.65-3.43-.65-3.42-.66-3.43-.65-3.43h2l-.65-3.43-.29-1.49H154.27v4.92h-2V51.5h2V61.79h4v6.86h-4V75.5h-5v3.43h5V89.22h3v4.49H166V89.22h-3V78.93h4.7l.51,3.43.51,3.43.51,3.43h3l.51,3.43.16,1.06h4l.15-1.06.52-3.43h-3l.51-3.43.51-3.43.51-3.43h4.7v6.86ZM161,50.6h.52l.11.9H161Zm-3,28.33V75.5h4.18l.52,3.43Zm5-20.57V51.5h.63l.24,1.81.24,1.62.51,3.43.51,3.43H163Zm0,17.14V68.65h3.16l.51,3.43.51,3.42Zm4-6.85V61.79h2.13l.52,3.43.51,3.43Zm8.83,10.28h-4.7l.52-3.43h4.18Zm.17-16.7h-.17l-.06-.44h.29Zm6.18,3,.51-3.43h2.14v6.86h-3.16Zm-2.46-10.29.24-1.62.23-1.81h.64V61.79h-2.14l.52-3.43Zm-1.41-4.33h.52v.9h-.64Zm-1.66,24.9.51-3.42.51-3.43h3.16V75.5Z"/>
    <polygon class="fill-current" points="104.59 93.71 126.55 93.71 126.55 92.65 126.55 89.22 123.55 89.22 123.55 85.79 123.55 84.97 111.04 84.97 111.04 82.36 111.04 78.93 106.04 78.93 106.04 75.5 111.04 75.5 111.04 72.08 111.04 68.65 115.04 68.65 115.04 65.22 115.04 61.79 111.04 61.79 111.04 58.36 111.04 54.93 111.04 51.5 109.04 51.5 109.04 48.07 109.04 44.64 109.04 41.22 109.04 37.79 109.04 34.36 111.04 34.36 111.04 30.93 111.04 29.44 101.59 29.44 101.59 30.93 101.59 34.36 99.59 34.36 99.59 37.79 99.59 41.22 99.59 44.64 99.59 48.07 99.59 51.5 101.59 51.5 101.59 54.93 101.59 58.36 101.59 61.79 105.59 61.79 105.59 65.22 105.59 68.65 101.59 68.65 101.59 72.08 101.59 75.5 96.59 75.5 96.59 78.93 101.59 78.93 101.59 82.36 101.59 85.79 101.59 89.22 104.59 89.22 104.59 92.65 104.59 93.71"/>
    <path class="fill-current" d="M278.67,130.85V117.14h-9v-6.86h9v-4H267.13l0,.08-.65,3.43-.09.49h-9l-.66,3.43-.65,3.43H248l-.65-3.43-.65-3.43h9l-.1-.49-.65-3.43v-.08H243.34v4h-9v6.86h9v13.71h5v6.86h-5v6.86h-1v10.29h1v10.28h3v5.42h8.75v-5.42h-3V154.86h-1V144.57h1v-6.86h2l.51,3.43.51,3.43h-1l.51,3.43.52,3.43.51,3.43h1l.51,3.42.51,3.43.51,3.43h3l.52,3.43.29,2h4l.29-2,.52-3.43h-3l.51-3.43.51-3.43.51-3.42h-1l.51-3.43.52-3.43.51-3.43h1l.51-3.43.51-3.43h2v6.86h-1v10.29h1v10.28h3v5.42h8.74v-5.42h-3V154.86h-1V144.57h1v-6.86h5v-6.86Zm-26.58,0v-3.41h.52l.35,2.72.1.69Zm5,6.86v-6.86h1l.52,3.43.51,3.43Zm4,1.36h-.17l-.18-1.36h.53ZM263.75,124l-.65,3.42-.65,3.43h-2.89l-.65-3.43-.65-3.42-.65-3.43-.66-3.43h8.11l-.65,3.43Zm3.05,10.28-.27,1.39-.26,2h-.53l-.26-2-.26-1.39-.66-3.43h2.89Zm3.13-3.43h-1l.1-.69.35-2.72h.53Zm5,3.43v3.43h-2l.51-3.43.52-3.43h1Z"/>
    <polygon class="fill-current" points="116.06 137.71 111.06 137.71 111.06 141.14 111.06 142.06 169.39 142.06 169.39 141.14 169.39 137.71 174.39 137.71 174.39 134.77 116.06 134.77 116.06 137.71"/>
    <path class="fill-current" d="M87.58,161.71v-6.85h-1V144.57h1v-6.73H74.38v6.73h-1v1.22h3.76v9.07h1v2.57a7.69,7.69,0,0,1,0,.85,4.57,4.57,0,0,1-.31,1.5,3.2,3.2,0,0,1-1.23,1.93,2.7,2.7,0,0,1-1.57.44,2.57,2.57,0,0,1-1.51-.44,2.1,2.1,0,0,1-.33-.26,5.1,5.1,0,0,1-1.27-3.17c0-.27,0-.55,0-.85v-2.57h-1V144.57h1v-6.86h5v-6.86h-5V118.77a8.37,8.37,0,0,1,.15-1.63h6a8.87,8.87,0,0,1,.15,1.63v9.88h9.44v-9.88a14.53,14.53,0,0,0-.13-1.63h-9a17.83,17.83,0,0,0-.72-3.43,15.77,15.77,0,0,0-.72-1.85,14.39,14.39,0,0,0-.86-1.58h9l-.33-.49a11.63,11.63,0,0,0-2.57-2.73,11.77,11.77,0,0,0-1.08-.7A12.29,12.29,0,0,0,75,104.87a12.7,12.7,0,0,0-6.26,1.49,10.71,10.71,0,0,0-1.09.7,10.86,10.86,0,0,0-2.53,2.73c-.11.16-.21.33-.31.49H56v-4.71H47.34v4.71H55.8a16,16,0,0,0-.83,1.58,14.15,14.15,0,0,0-.71,1.85,17.11,17.11,0,0,0-.73,3.43H47.34v13.71H43.78l-.94-3.43L41.9,124,41,120.57,40,117.14h7v-6.86H38.34v6.86H31l-.94-3.43-.94-3.43h9l-.14-.49-.94-3.43-.22-.79H28.45v4.71h-7v-4.71H12v4.71H3v6.86h9v13.71h5v6.86H12v6.86H11v10.29h1v10.28h3v4.7h9.45v-4.7h-3V154.86h-1V144.57h1v-6.86h5v-6.86h-5V117.14h7v13.71h5v6.86h-5v6.86h-1v10.29h1v10.28h3v4.7h8.66v-4.7h-3V154.86h-1V144.57h1v-6.86h1.68l.94,3.43.94,3.43h-1l.94,3.43.94,3.43.94,3.43h1l.94,3.42.94,3.43.94,3.43h3l.94,3.43.35,1.27H59v-4.7H56V154.86H55V144.57h1v-6.86h5v-6.86H56V117.14h6.53c-.06.53-.11,1.08-.13,1.63v12.08h5v6.86h-5v6.86h-1v10.29h1v1.78c0,.56,0,1.11,0,1.64a17.53,17.53,0,0,0,.46,3.43,13.1,13.1,0,0,0,.58,1.93,12.87,12.87,0,0,0,.72,1.5h3a11.18,11.18,0,0,0,2.6,3.22l.27.21a9.71,9.71,0,0,0,6.46,2,8.87,8.87,0,0,0,5.53-2,10.63,10.63,0,0,0,1.82-1.79l.66,1.79.48,1.27h5.59v-4.7h-3Zm-68.13-48v3.43h-7v-6.86h7Zm22.66,24v-4.34h.52l.24.91.55,2.07.37,1.36Zm5.23,3.43V142h-.52l-.24-.89L46,139.06l-.37-1.35h1.68Zm5-6.86v3.43H50.66l-.94-3.43-.94-3.43h3.56ZM63,117.14a5.59,5.59,0,0,1,.2-.73,2.92,2.92,0,0,1,2.8-2.36,2.68,2.68,0,0,1,1.92.7A5.13,5.13,0,0,1,69,117.14Z"/>
    <polygon class="fill-current" points="239.48 161.81 226.97 161.81 226.97 161.71 226.97 158.28 226.97 154.86 225.97 154.86 225.97 151.43 225.97 148 225.97 144.57 226.97 144.57 226.97 141.14 226.97 137.71 231.97 137.71 231.97 134.28 231.97 130.85 226.97 130.85 226.97 127.42 226.97 124 226.97 120.57 226.97 117.14 217.97 117.14 217.97 113.71 217.97 110.28 226.97 110.28 226.97 109.79 226.97 106.36 226.97 106.28 217.53 106.28 217.53 106.36 217.53 109.79 217.53 110.28 212.26 110.28 212.26 109.79 212.26 106.36 212.26 106.28 190.67 106.28 190.67 106.36 190.67 109.79 190.67 110.28 181.67 110.28 181.67 113.71 181.67 117.14 190.67 117.14 190.67 120.57 190.67 124 190.67 127.42 190.67 130.85 195.67 130.85 195.67 134.28 195.67 137.71 190.67 137.71 190.67 141.14 190.67 144.57 189.67 144.57 189.67 148 189.67 151.43 189.67 154.86 190.67 154.86 190.67 158.28 190.67 161.71 190.67 165.14 193.67 165.14 193.67 168.57 193.67 170.56 215.26 170.56 215.26 168.57 215.26 165.14 212.26 165.14 212.26 161.71 212.26 160.85 200.11 160.85 200.11 158.28 200.11 154.86 199.11 154.86 199.11 151.43 199.11 148 199.11 144.57 200.11 144.57 200.11 143.19 208.85 143.19 208.85 141.14 208.85 137.71 213.85 137.71 213.85 134.28 213.85 132.87 205.11 132.87 205.11 130.85 200.11 130.85 200.11 127.42 200.11 124 200.11 120.57 200.11 117.14 191.11 117.14 191.11 115.99 203.26 115.99 203.26 113.71 203.26 110.28 208.53 110.28 208.53 113.71 208.53 117.14 217.53 117.14 217.53 120.57 217.53 124 217.53 127.42 217.53 130.85 222.53 130.85 222.53 134.28 222.53 137.71 217.53 137.71 217.53 141.14 217.53 144.57 216.53 144.57 216.53 148 216.53 151.43 216.53 154.86 217.53 154.86 217.53 158.28 217.53 161.71 217.53 165.14 220.53 165.14 220.53 168.57 220.53 170.56 242.48 170.56 242.48 168.57 242.48 165.14 239.48 165.14 239.48 161.81"/>
  </g>
  <g class="blend-screen text-glitch-blue">
    <polygon class="fill-current" points="267.64 41.22 267.64 44.64 267.64 48.07 267.64 51.5 269.64 51.5 269.64 54.93 269.64 58.36 269.64 61.79 273.64 61.79 273.64 65.22 273.64 68.65 269.64 68.65 269.64 72.08 269.64 75.5 264.64 75.5 264.64 78.93 269.64 78.93 269.64 82.36 269.64 85.79 269.64 89.22 272.64 89.22 272.64 92.65 272.64 95.71 282.08 95.71 282.08 92.65 282.08 89.22 279.08 89.22 279.08 85.79 279.08 82.36 279.08 78.93 274.08 78.93 274.08 75.5 279.08 75.5 279.08 72.08 279.08 68.65 283.08 68.65 283.08 65.22 283.08 61.79 279.08 61.79 279.08 58.36 279.08 54.93 279.08 51.5 277.08 51.5 277.08 48.07 277.08 44.64 277.08 41.22 277.08 41.14 286 41.14 286 37.79 286 34.36 288 34.36 288 31.44 260.71 31.44 260.71 34.36 258.71 34.36 258.71 37.79 258.71 41.14 267.64 41.14 267.64 41.22"/>
    <path class="fill-current" d="M34.45,54.93v6.86h4v6.86h-4V75.5h-5v3.43h5V89.22h3v6.49H46.2V89.22h-3V78.93h4.4l.51,3.43.51,3.43.51,3.43h3l.52,3.43.45,3.06h4l.45-3.06.52-3.43h-3l.51-3.43.51-3.43.51-3.43H61V89.22h3v6.49h8.75V89.22h-3V78.93h-5V75.5h5V68.65h4V61.79h-4V51.5h-2V34.36h2V31.44H58.23l-.55,2.92h-2L55,37.79l-.66,3.43-.65,3.42-.65,3.43-.66,3.43h2l-.65,3.43-.65,3.43-.47,2.46-.13,1h-.79l-.13-1-.47-2.46-.65-3.43-.65-3.43h-2l-.66-3.43-.65-3.43-.65-3.42-.66-3.43-.65-3.43h2L46,31.44H34.45v2.92h-2V51.5h2Zm3.75,24V75.5h3.88l.52,3.43Zm5-3.43V68.65h2.86l.51,3.43.51,3.42Zm8.43,3.43.51-3.43H56v3.43ZM61,75.5H57.14l.52-3.42.51-3.43H61V75.5Zm4-10.28v3.43H62.17l.51-3.43.51-3.43H65Zm-4.87-9.91.05-.38.3-2.33H61v9.19H59.19l.52-3.43Zm-3.65,6.48-.31,2.44H56l-.31-2.44Zm-7,3.43.51,3.43H47.2V61.79H49Zm-5.48-9.91.45,3L45,61.79H43.2V52.6h.52l.3,2.33Z"/>
    <polygon class="fill-current" points="202.62 54.93 202.62 58.36 202.62 61.79 206.62 61.79 206.62 65.22 206.62 68.65 202.62 68.65 202.62 72.08 202.62 75.5 197.62 75.5 197.62 78.93 202.62 78.93 202.62 82.36 202.62 85.79 202.62 89.22 205.62 89.22 205.62 92.65 205.62 95.71 227.21 95.71 227.21 92.65 227.21 89.22 224.21 89.22 224.21 86.01 212.06 86.01 212.06 85.79 212.06 82.36 212.06 78.93 207.06 78.93 207.06 75.5 212.06 75.5 212.06 72.08 212.06 68.65 216.06 68.65 216.06 68.34 224.8 68.34 224.8 65.22 224.8 61.79 220.8 61.79 220.8 58.36 220.8 58.02 212.06 58.02 212.06 54.93 212.06 51.5 210.06 51.5 210.06 48.07 210.06 44.64 210.06 41.22 210.06 41.14 222.21 41.14 222.21 37.79 222.21 34.36 224.21 34.36 224.21 31.44 202.62 31.44 202.62 34.36 200.62 34.36 200.62 37.79 200.62 41.22 200.62 44.64 200.62 48.07 200.62 51.5 202.62 51.5 202.62 54.93"/>
    <path class="fill-current" d="M229.48,54.93v6.86h4v6.86h-4V75.5h-5v3.43h5V89.22h3v6.49h8.65V89.22h-3V78.93h-5V75.5h5l.94,3.43h5l.94,3.43.94,3.43.94,3.43h3l.94,3.43.84,3.06H260V89.22h-3V78.93h-5V75.5h5V68.65h4V61.79h-4V51.5h-2V34.36h2V31.44h-8.66v2.92h-2V51.5h2V61.79H246.2l-.95-3.43-.94-3.43-.94-3.43h-2l-.94-3.43-.94-3.43-.94-3.42-.94-3.43-.94-3.43h2l-.8-2.92h-8.39v2.92h-2V51.5h2Zm8.65,4.31h.53l.68,2.55h-1.21Zm5,16.26h-5V68.65h3.08l.94,3.43Zm9.28-13.71V67.9h-.53l-.71-2.68-.07-.29-.86-3.14Zm-8.92.43.82,3,.94,3.43h-3.08V61.79h1.21Z"/>
    <path class="fill-current" d="M100.58,61.79a18.69,18.69,0,0,0,1.32-3.43,23.9,23.9,0,0,0,.69-3.43,30.19,30.19,0,0,0,.25-3.43h-2c0-.27,0-.54,0-.83,0-.9,0-1.77-.1-2.6a26.84,26.84,0,0,0-.46-3.43,20.22,20.22,0,0,0-1-3.42,16.47,16.47,0,0,0-1.76-3.43,13.65,13.65,0,0,0-2-2.33,12.31,12.31,0,0,0-1.33-1.1h2a16.82,16.82,0,0,0-10-2.92H76.8v2.92h-2V51.5h2V61.79h4v6.86h-4V75.5h-5v3.43h5V89.22h3v6.49h9.44V89.22h-3V78.93h-5V75.5h5V70a17.85,17.85,0,0,0,7-1.36h4a14.73,14.73,0,0,0,4.4-2.84c.2-.19.4-.39.59-.59a15,15,0,0,0,2.38-3.43ZM86.24,54.93V51.5h-2V41.05a12.27,12.27,0,0,1,2.11.17A5.05,5.05,0,0,1,90,43.33a5.49,5.49,0,0,1,.63,1.31,14,14,0,0,1,.6,3.43c.06.9.09,1.87.09,3,0,.17,0,.32,0,.48h2a30.8,30.8,0,0,1-.18,3.43A7.11,7.11,0,0,1,92,58.36h0c-1,1.48-2.88,2-5.77,2V54.93Z"/>
    <polygon class="fill-current" points="18 82.36 18 85.79 18 89.22 21 89.22 21 92.65 21 95.71 30.45 95.71 30.45 92.65 30.45 89.22 27.45 89.22 27.45 85.79 27.45 82.36 27.45 78.93 22.45 78.93 22.45 75.5 27.45 75.5 27.45 72.08 27.45 68.65 31.45 68.65 31.45 65.22 31.45 61.79 27.45 61.79 27.45 58.36 27.45 54.93 27.45 51.5 25.45 51.5 25.45 48.07 25.45 44.64 25.45 41.22 25.45 37.79 25.45 34.36 27.45 34.36 27.45 31.44 18 31.44 18 34.36 16 34.36 16 37.79 16 41.22 16 44.64 16 48.07 16 51.5 18 51.5 18 54.93 18 58.36 18 61.79 22 61.79 22 65.22 22 68.65 18 68.65 18 72.08 18 75.5 13 75.5 13 78.93 18 78.93 18 82.36"/>
    <polygon class="fill-current" points="133.41 82.36 133.41 85.79 133.41 89.22 136.41 89.22 136.41 92.65 136.41 95.71 158.01 95.71 158.01 92.65 158.01 89.22 155.01 89.22 155.01 86.01 142.85 86.01 142.85 85.79 142.85 82.36 142.85 78.93 137.85 78.93 137.85 75.5 142.85 75.5 142.85 72.08 142.85 68.65 146.85 68.65 146.85 68.34 155.6 68.34 155.6 65.22 155.6 61.79 151.6 61.79 151.6 58.36 151.6 58.02 142.85 58.02 142.85 54.93 142.85 51.5 140.85 51.5 140.85 48.07 140.85 44.64 140.85 41.22 140.85 41.14 153.01 41.14 153.01 37.79 153.01 34.36 155.01 34.36 155.01 31.44 133.41 31.44 133.41 34.36 131.41 34.36 131.41 37.79 131.41 41.22 131.41 44.64 131.41 48.07 131.41 51.5 133.41 51.5 133.41 54.93 133.41 58.36 133.41 61.79 137.41 61.79 137.41 65.22 137.41 68.65 133.41 68.65 133.41 72.08 133.41 75.5 128.41 75.5 128.41 78.93 133.41 78.93 133.41 82.36"/>
    <path class="fill-current" d="M186.85,85.79v3.43h3v6.49h8.75V89.22h-3V78.93h-5V75.5h5V68.65h4V61.79h-4V51.5h-2V34.36h2V31.44H184.05l-.55,2.92h-2l-.65,3.43-.66,3.43-.65,3.42-.65,3.43-.66,3.43h2l-.65,3.43-.65,3.43-.47,2.46-.13,1h-.79l-.13-1-.47-2.46-.65-3.43-.65-3.43h-2L173,48.07l-.65-3.43-.65-3.42L171,37.79l-.65-3.43h2l-.56-2.92H160.27v2.92h-2V51.5h2V61.79h4v6.86h-4V75.5h-5v3.43h5V89.22h3v6.49H172V89.22h-3V78.93h4.4l.51,3.43.51,3.43.51,3.43h3l.52,3.43.45,3.06h4l.45-3.06.52-3.43h-3l.51-3.43.51-3.43.51-3.43h4.4v6.86Zm4-20.57v3.43H188l.51-3.43.51-3.43h1.84ZM186,55.31l.05-.38.3-2.33h.52v9.19H185l.52-3.43Zm-3.65,6.48L182,64.23h-.17l-.31-2.44ZM169,58.36V52.6h.52l.3,2.33,0,.38.45,3,.52,3.43H169Zm4,3.43h1.84l.51,3.43.51,3.43H173V61.79Zm-9,17.14V75.5h3.88l.52,3.43Zm5-3.43V68.65h2.86l.51,3.43.51,3.42Zm8.43,3.43L178,75.5h3.89v3.43ZM183,75.5l.52-3.42.51-3.43h2.86V75.5Z"/>
    <polygon class="fill-current" points="110.59 95.71 132.55 95.71 132.55 92.65 132.55 89.22 129.55 89.22 129.55 86.97 117.04 86.97 117.04 85.79 117.04 82.36 117.04 78.93 112.04 78.93 112.04 75.5 117.04 75.5 117.04 72.08 117.04 68.65 121.04 68.65 121.04 65.22 121.04 61.79 117.04 61.79 117.04 58.36 117.04 54.93 117.04 51.5 115.04 51.5 115.04 48.07 115.04 44.64 115.04 41.22 115.04 37.79 115.04 34.36 117.04 34.36 117.04 31.44 107.59 31.44 107.59 34.36 105.59 34.36 105.59 37.79 105.59 41.22 105.59 44.64 105.59 48.07 105.59 51.5 107.59 51.5 107.59 54.93 107.59 58.36 107.59 61.79 111.59 61.79 111.59 65.22 111.59 68.65 107.59 68.65 107.59 72.08 107.59 75.5 102.59 75.5 102.59 78.93 107.59 78.93 107.59 82.36 107.59 85.79 107.59 89.22 110.59 89.22 110.59 92.65 110.59 95.71"/>
    <polygon class="fill-current" points="53.34 109.79 53.34 110.28 62 110.28 62 109.79 62 107.57 53.34 107.57 53.34 109.79"/>
    <path class="fill-current" d="M284.67,130.85V117.14h-9v-6.86h9v-2H273.13l-.29,1.51-.09.49h-9l-.66,3.43-.65,3.43h-8.87l-.65-3.43-.65-3.43h9l-.1-.49-.28-1.51H249.34v2h-9v6.86h9v13.71h5v6.86h-5v6.86h-1v10.29h1v10.28h3v7.42h8.75v-7.42h-3V154.86h-1V144.57h1v-6.86h1.7l.51,3.43.51,3.43h-1l.52,3.43.51,3.43.51,3.43h1l.51,3.42.51,3.43.52,3.43h3l.51,3.43.51,3.43.08.56h4l.08-.56.51-3.43.51-3.43h-3l.52-3.43.51-3.43.51-3.42h-1l.51-3.43.52-3.43.51-3.43h1l.51-3.43.51-3.43h1.71v6.86h-1v10.29h1v10.28h3v7.42h8.74v-7.42h-3V154.86h-1V144.57h1v-6.86h5v-6.86Zm-8.74,0h-.71l.18-1.41h.53ZM263.88,124l-.66-3.43-.65-3.43h8.87l-.65,3.43-.65,3.43-.66,3.42-.65,3.43h-3.65l-.65-3.43Zm3.65,13.71-.44,3.36h-.17l-.43-3.36Zm-9.44-8.27h.52l.18,1.41h-.7Zm5,4.84v-3.43h.7l.17,1.31.32,2.12.51,3.43h-1.7Zm8.4,3.43v0l-.64-3.39-.66-3.43h3.65l-.65,3.43-.65,3.39v0Zm9.44,0h-1.71l.51-3.43.32-2.12.17-1.31h.71v6.86Z"/>
    <polygon class="fill-current" points="122.06 137.71 117.06 137.71 117.06 141.14 117.06 144.06 175.39 144.06 175.39 141.14 175.39 137.71 180.39 137.71 180.39 136.77 122.06 136.77 122.06 137.71"/>
    <path class="fill-current" d="M93.58,161.71v-6.85h-1V144.57h1v-4.73H80.38v4.73h-1v3.22h3.76v7.07h1v4.57a6.24,6.24,0,0,1-.33,2.28.64.64,0,0,1,0,.07,2.77,2.77,0,0,1-2.8,2.37,2.56,2.56,0,0,1-1.84-.7,4.76,4.76,0,0,1-1-1.74,7.62,7.62,0,0,1-.31-2.28v-4.57h-1V144.57h1v-6.86h5v-6.86h-5V120.77c0-.07,0-.14,0-.2a6.4,6.4,0,0,1,.34-2.16,4.31,4.31,0,0,1,.63-1.27h4.36a6,6,0,0,1,.95,3.43c0,.07,0,.13,0,.2v9.88h9.44v-9.88c0-.07,0-.13,0-.2a19.85,19.85,0,0,0-.44-3.43h-9A16,16,0,0,0,83,113.86a1.09,1.09,0,0,1-.08-.15,13.06,13.06,0,0,0-2.32-3.43h9l-.52-.49a9.76,9.76,0,0,0-.84-.73A11.77,11.77,0,0,0,81,106.87a12.08,12.08,0,0,0-7.35,2.19,10.32,10.32,0,0,0-.86.73c-.17.16-.33.32-.49.49h-9a13,13,0,0,0-2.24,3.43l-.08.15a16,16,0,0,0-1.12,3.28H53.34v13.71H49.23l-.94-3.43L47.35,124l-.94-3.43-.94-3.43H53v-6.86H44.34v6.86H36.47l-.94-3.43-.94-3.43h9l-.14-.49-.61-2.22H34.45v2.71h-7v-2.71H18v2.71H9v6.86h9v13.71h5v6.86H18v6.86H17v10.29h1v10.28h3v6.7h9.45v-6.7h-3V154.86h-1V144.57h1v-6.86h5v-6.86h-5V117.14h7v13.71h5v6.86h-5v6.86h-1v10.29h1v10.28h3v6.7h8.66v-6.7h-3V154.86h-1V144.57h1v-6.86h1.14l.17.64.77,2.79.94,3.43h-1l.94,3.43.94,3.43.94,3.43h1l.94,3.42.94,3.43.94,3.43h3l.94,3.43.89,3.27H65v-6.7H62V154.86H61V144.57h1v-6.86h5v-6.86H62V117.14h6.85a19.85,19.85,0,0,0-.43,3.43,1.36,1.36,0,0,0,0,.2v10.08h5v6.86h-5v6.86h-1v10.29h1v3.78a20.5,20.5,0,0,0,.13,3.07,15.78,15.78,0,0,0,.76,3.43h3a4.83,4.83,0,0,0,.16.5,12.92,12.92,0,0,0,1.65,2.93,10.82,10.82,0,0,0,1.67,1.79,8.15,8.15,0,0,0,2.9,1.64,12.41,12.41,0,0,0,3.83.54,8.68,8.68,0,0,0,3-.54,10.09,10.09,0,0,0,4.35-3.22L91,171.84h5.59v-6.7h-3ZM18.45,117.14v-6.86h7v6.86Zm29.66,18.23h.52l.62,2.34H48.11ZM53.34,144h-.52l-.77-2.89,0-.08-.92-3.35h2.23V144Zm5-9.75v3.43H56.11l-.94-3.43-.94-3.43h4.11ZM72,116.05a2.68,2.68,0,0,1,1.92.7,4.56,4.56,0,0,1,.27.39H69.82A2.56,2.56,0,0,1,72,116.05Z"/>
    <path class="fill-current" d="M245.48,163.81H233v-8.95h-1V144.57h1v-6.86h5v-6.86h-5V117.14h-9v-6.86h9v-2h-9.44v2h-5.26v-2h-21.6v2h-9v6.86h9v13.71h5v6.86h-5v6.86h-1v10.29h1v10.28h3v7.42h21.6v-7.42h-3v-2.29H206.11v-8h-1v-9.67h8.74v-.62h1v-6.86h5v-2.84h-8.74v-4h-5V118h12.16v-.85h5.26v13.71h5v6.86h-5v6.86h-1v10.29h1v10.28h3v7.42h21.95v-7.42h-3Zm-36.21-46.67v-6.86h5.26v6.86Z"/>
  </g>
</svg>