<svg xmlns="http://www.w3.org/2000/svg" viewBox="0 0 300 200">
  <g class="blend-screen text-glitch-green">
    <path class="fill-current" d="M111.59,72.08h-7V82.36h-1v9.35h22V83H113v-.61h1V72.08h7V65.22h-4V61.79h-3V51.5h-7V48.07h7V27.44h-9.45V48.07H99.83c0-.45,0-.92,0-1.4,0-.7,0-1.37-.06-2a29.24,29.24,0,0,0-.39-3.42,22.89,22.89,0,0,0-.87-3.43,17.25,17.25,0,0,0-1.6-3.43,13.53,13.53,0,0,0-2.33-2.9c-.2-.19-.42-.36-.63-.53a15.64,15.64,0,0,0-9.13-3.43c-.53,0-1.07-.06-1.61-.06H73.8V48.07h-7V51.5h7V61.79h3v3.43h4v6.86h-7V82.36h-1v9.35h9.44V82.36h1V72.08h7V66a18.62,18.62,0,0,0,5.4-.79h-4a15,15,0,0,0,6-3.41l0,0h-3a14.69,14.69,0,0,0,2.65-3.43,18.24,18.24,0,0,0,1.46-3.43,23.12,23.12,0,0,0,.77-3.43h5.08V61.79h3v3.43h4v6.86ZM76.24,51.5V48.07h7v-11a8.93,8.93,0,0,1,4,.74A4.3,4.3,0,0,1,89,39.33a6.05,6.05,0,0,1,.8,1.89,16.56,16.56,0,0,1,.46,3.42c0,.74.06,1.53.06,2.38,0,.37,0,.71,0,1h-7a26.76,26.76,0,0,1-.25,3.43Zm13.83,0A6.41,6.41,0,0,1,89,54.37a3.72,3.72,0,0,1-.48.56c-1.1,1.06-2.8,1.45-5.29,1.45V51.5Zm7.52,0H92.51a27.59,27.59,0,0,0,.32-3.43h4.76Z"/>
    <polygon class="fill-current" points="266.64 37.79 266.64 41.22 266.64 44.64 266.64 48.07 259.64 48.07 259.64 51.5 266.64 51.5 266.64 54.93 266.64 58.36 266.64 61.79 269.64 61.79 269.64 65.22 273.64 65.22 273.64 68.65 273.64 72.08 266.64 72.08 266.64 75.5 266.64 78.93 266.64 82.36 265.64 82.36 265.64 85.79 265.64 89.22 265.64 91.71 275.08 91.71 275.08 89.22 275.08 85.79 275.08 82.36 276.08 82.36 276.08 78.93 276.08 75.5 276.08 72.08 283.08 72.08 283.08 68.65 283.08 65.22 279.08 65.22 279.08 61.79 276.08 61.79 276.08 58.36 276.08 54.93 276.08 51.5 269.08 51.5 269.08 48.07 276.08 48.07 276.08 44.64 276.08 41.22 276.08 37.79 276.08 37.14 285 37.14 285 34.36 285 30.93 285 27.5 285 27.44 257.71 27.44 257.71 27.5 257.71 30.93 257.71 34.36 257.71 37.14 266.64 37.14 266.64 37.79"/>
    <path class="fill-current" d="M219.48,51.5h7V61.79h3v3.43h4v6.86h-7V82.36h-1v9.35h8.65V82.36h1V72.08h5.12l.94,3.42.94,3.43.94,3.43h-1l.94,3.43.94,3.43.68,2.49H253V82.36h1V72.08h7V65.22h-4V61.79h-3V51.5h-7V48.07h7V27.44h-8.66V48.07h-4.84l-.94-3.43-.94-3.42-.94-3.43-.94-3.43-.94-3.43-.94-3.43,0-.06h-8.39V48.07h-7Zm15.65,10.29V55.24h.53l.79,3,0,.14.94,3.43Zm13.24,0V63.9h-.53l-.56-2.11Zm-3,3.43.94,3.43.94,3.43h-5.12V65.22Zm0-13.72V61.79h-1.09l-.22-.86-.71-2.57-.94-3.43-.94-3.43Zm-4.94,10.29.94,3.43h-3.24V61.79Zm-2.06-13.72V51.5h-3.9l-.94-3.43Z"/>
    <polygon class="fill-current" points="15 54.93 15 58.36 15 61.79 18 61.79 18 65.22 22 65.22 22 68.65 22 72.08 15 72.08 15 75.5 15 78.93 15 82.36 14 82.36 14 85.79 14 89.22 14 91.71 23.45 91.71 23.45 89.22 23.45 85.79 23.45 82.36 24.45 82.36 24.45 78.93 24.45 75.5 24.45 72.08 31.45 72.08 31.45 68.65 31.45 65.22 27.45 65.22 27.45 61.79 24.45 61.79 24.45 58.36 24.45 54.93 24.45 51.5 17.45 51.5 17.45 48.07 24.45 48.07 24.45 44.64 24.45 41.22 24.45 37.79 24.45 34.36 24.45 30.93 24.45 27.5 24.45 27.44 15 27.44 15 27.5 15 30.93 15 34.36 15 37.79 15 41.22 15 44.64 15 48.07 8 48.07 8 51.5 15 51.5 15 54.93"/>
    <path class="fill-current" d="M31.45,54.93v6.86h3v3.43h4v6.86h-7V82.36h-1v9.35H39.2V82.36h1V72.08h4l.51,3.42.51,3.43.52,3.43h-1l.51,3.43.51,3.43.37,2.49h4l.37-2.49L51,85.79l.51-3.43h1L53,78.93l.52-3.43.51-3.42h4V82.36H57v9.35h8.75V82.36h1V72.08h7V65.22h-4V61.79h-3V51.5h-7V48.07h7V27.44H55.23v.06l-.65,3.43-.65,3.43-.66,3.43-.65,3.43L52,44.64l-.66,3.43H46.92l-.65-3.43-.65-3.42L45,37.79l-.65-3.43-.65-3.43L43,27.5l0-.06H31.45V48.07h-7V51.5h7ZM65,65.22v6.86h-4l.51-3.43.51-3.43ZM58.6,61.79H61v3.43h-3Zm-2.49-3.43.51-3.43.51-3.43H58V61.79H55.6Zm-6-6.86,0-.19.35-2.71H51v2.9h-.38L50,54.93l-.36,1.89-.2,1.54-.24,1.87H49l-.24-1.87-.2-1.54-.36-1.89-.65-3.43Zm0,13.72.51,3.43.51,3.43h-4V65.22Zm-4.52-3.43.52,3.43H43.2V61.79ZM44.3,48.07l-.65,3.43H41.1l.51,3.43.51,3.43.51,3.43H40.2V51.5h.38l-.66-3.43Zm-11.1.53h.52l.35,2.71,0,.19h-.9Z"/>
    <polygon class="fill-current" points="130.41 54.93 130.41 58.36 130.41 61.79 133.41 61.79 133.41 65.22 137.41 65.22 137.41 68.65 137.41 72.08 130.41 72.08 130.41 75.5 130.41 78.93 130.41 82.36 129.41 82.36 129.41 85.79 129.41 89.22 129.41 91.71 151.01 91.71 151.01 89.22 151.01 85.79 151.01 82.36 152.01 82.36 152.01 82.01 139.85 82.01 139.85 78.93 139.85 75.5 139.85 72.08 146.85 72.08 146.85 68.65 146.85 65.22 142.85 65.22 142.85 64.34 151.6 64.34 151.6 61.79 148.6 61.79 148.6 58.36 148.6 54.93 148.6 54.02 139.85 54.02 139.85 51.5 132.85 51.5 132.85 48.07 139.85 48.07 139.85 44.64 139.85 41.22 139.85 37.79 139.85 37.14 152.01 37.14 152.01 34.36 152.01 30.93 152.01 27.5 152.01 27.44 130.41 27.44 130.41 27.5 130.41 30.93 130.41 34.36 130.41 37.79 130.41 41.22 130.41 44.64 130.41 48.07 123.41 48.07 123.41 51.5 130.41 51.5 130.41 54.93"/>
    <polygon class="fill-current" points="199.62 54.93 199.62 58.36 199.62 61.79 202.62 61.79 202.62 65.22 206.62 65.22 206.62 68.65 206.62 72.08 199.62 72.08 199.62 75.5 199.62 78.93 199.62 82.36 198.62 82.36 198.62 85.79 198.62 89.22 198.62 91.71 220.21 91.71 220.21 89.22 220.21 85.79 220.21 82.36 221.21 82.36 221.21 82.01 209.06 82.01 209.06 78.93 209.06 75.5 209.06 72.08 216.06 72.08 216.06 68.65 216.06 65.22 212.06 65.22 212.06 64.34 220.8 64.34 220.8 61.79 217.8 61.79 217.8 58.36 217.8 54.93 217.8 54.02 209.06 54.02 209.06 51.5 202.06 51.5 202.06 48.07 209.06 48.07 209.06 44.64 209.06 41.22 209.06 37.79 209.06 37.14 221.21 37.14 221.21 34.36 221.21 30.93 221.21 27.5 221.21 27.44 199.62 27.44 199.62 27.5 199.62 30.93 199.62 34.36 199.62 37.79 199.62 41.22 199.62 44.64 199.62 48.07 192.62 48.07 192.62 51.5 199.62 51.5 199.62 54.93"/>
    <path class="fill-current" d="M183.85,78.93v3.43h-1v9.35h8.75V82.36h1V72.08h7V65.22h-4V61.79h-3V51.5h-7V48.07h7V27.44H181.05v.06l-.65,3.43-.65,3.43-.66,3.43-.65,3.43-.65,3.42-.66,3.43h-4.38l-.65-3.43-.65-3.42-.66-3.43-.65-3.43-.65-3.43-.65-3.43,0-.06H157.27V48.07h-7V51.5h7V61.79h3v3.43h4v6.86h-7V82.36h-1v9.35H165V82.36h1V72.08h4l.51,3.42.51,3.43.52,3.43h-1l.51,3.43.51,3.43.37,2.49h4l.37-2.49.51-3.43.51-3.43h1l.51-3.43.52-3.43.51-3.42h4v6.85ZM159,51.5V48.6h.52l.35,2.71,0,.19Zm25.4,10.29h2.43v3.43H183.9Zm-2.49-3.43.51-3.43L183,51.5h.9V61.79h-2.43Zm-6-6.86,0-.19.35-2.71h.52v2.9h-.38l-.65,3.43-.36,1.89-.2,1.54L175,60.23h-.17l-.24-1.87-.2-1.54-.36-1.89-.65-3.43Zm-5.83-3.43-.65,3.43h-2.55l.51,3.43.51,3.43.51,3.43H166V51.5h.38l-.66-3.43ZM169,61.79h2.43l.52,3.43H169Zm4,10.29V65.22H176l.51,3.43.51,3.43Zm14.37-3.43.51-3.43h2.95v6.86h-4Z"/>
    <polygon class="fill-current" points="172.39 132.77 114.06 132.77 114.06 134.28 122.06 134.28 122.06 137.71 114.06 137.71 114.06 140.06 172.39 140.06 172.39 137.71 180.39 137.71 180.39 134.28 172.39 134.28 172.39 132.77"/>
    <path class="fill-current" d="M85.38,137.71H82.84v-3.43h-8V124h-1v-6.86h-2v-.37a6.77,6.77,0,0,1,.35-2.36,5.18,5.18,0,0,1,.29-.7,2.82,2.82,0,0,1,4.43-1,4.91,4.91,0,0,1,.62,1,6.65,6.65,0,0,1,.61,3.06v.37h2V124h1v2.65h9.44V124h-1v-6.86h-2v-.37a18.84,18.84,0,0,0-.35-3.06,16.12,16.12,0,0,0-1-3.43h3l-.17-.42a.43.43,0,0,1,0-.07,13,13,0,0,0-2.29-3.43,10.57,10.57,0,0,0-7.31-3.42c-.45,0-.9-.07-1.38-.07s-.93,0-1.38.07a11.38,11.38,0,0,0-6,2.12,9.83,9.83,0,0,0-1.42,1.3A13,13,0,0,0,67,109.79a.43.43,0,0,1,0,.07l-.17.42h-3a16.72,16.72,0,0,0-1,3.43,20,20,0,0,0-.35,3.06v.37h2V124h1v10.28H59V124H58v-6.86H56v-6.86h3v-6.71H50.34v6.71h-3v6.86h2V124h1v10.28H49.4l0,.07.92,3.36h0V140h-.52l-.62-2.32H48.11v-3.43h.16l-.94-3.43-.94-3.43L45.45,124h-1l-.94-3.43-.95-3.43h-2l-.94-3.43-.94-3.43h3l-.13-.49-.94-3.43-.77-2.79H31.45v6.71h-3v6.86h2V124h1v10.28h-7V124h-1v-6.86h-2v-6.86h3v-6.71H15v6.71H12v6.86h2V124h1v10.28h8v3.43H15v6.86h1v6.86h3v3.43H16v6.85H15v3.43H13v2.7h9.45v-2.7h2v-3.43h1v-6.85h3v-3.43h-3v-6.86h-1v-6.86h7v6.86h1v6.86h3v3.43h-3v6.85h-1v3.43h-2v2.7h8.66v-2.7h2v-3.43h1v-6.85h3v-3.43h-3v-6.86h-1v-6.86h2.23l.94,3.43.94,3.43h1l.94,3.43.94,3.43h3l.94,3.43H48l.94,3.42.94,3.43h-1l.94,3.43h-2l.74,2.7H57v-2.7h2v-3.43h1v-6.85h3v-3.43H60v-6.86H59v-6.86h6.4v6.86h1v6.86h3v3.43h-3a19.94,19.94,0,0,0,.19,3.42,14.64,14.64,0,0,0,.86,3.36l0,.07h-1a12.37,12.37,0,0,0,2.07,3.43h-2a10.81,10.81,0,0,0,1.22,1.22,9.6,9.6,0,0,0,6.73,2.18,9.25,9.25,0,0,0,7-3.4H82l1,2.7h5.59v-2.7h2v-3.43h1v-6.85h3v-3.43h-3v-6.86h-1v-6.86h8v-1.87H85.38Zm-45.93,0h-7v-3.43h7Zm.66-3.43v-2.91h.52l.77,2.91Zm18.23,3.43H57.2l-.17-.65-.76-2.78h2.07Zm15.06,0H67v-3.43h6.4Zm10.13,27.43c.11-.12.22-.23.32-.36l.13.36Zm1.61-10.28h-3v.57a6.1,6.1,0,0,1-.35,2.35c-.05.18-.1.34-.16.5A2.63,2.63,0,0,1,79,160.15a2.56,2.56,0,0,1-1.84-.7,4.65,4.65,0,0,1-.77-1.17,6.55,6.55,0,0,1-.54-2.85v-.57h3v-3.43h-3v-6.86h-1v-6.86h2.54v6.08h3.76v.78h1v6.86h3Z"/>
    <path class="fill-current" d="M281.67,137.71h8v-3.43h-8V124h-1v-6.86h-2v-6.86h3v-6H270.13l-.4,2.08-.65,3.43-.09.49h-3l-.66,3.43-.65,3.43h2l-.65,3.43-.66,3.43h1l-.65,3.42-.65,3.43-.54,2.82-.08.61h.42l.52,3.43h-2.3v-3.43h.47l-.08-.61-.53-2.82-.66-3.43-.65-3.42h-1l-.65-3.43-.66-3.43h-2l-.65-3.43-.65-3.43h3l-.1-.49-.65-3.43-.39-2.08H246.34v6h-3v6.86h2V124h1v10.28h8v3.43h-8v6.86h1v6.86h3v3.43h-3v6.85h-1v3.43h-2v3.42h8.75v-3.42h2v-3.43h1v-6.85h3v-3.43h-3v-6.86h-1v-6.86h2.3l.51,3.43.51,3.43h1l.51,3.43.51,3.43h3l.52,3.43h-3l.51,3.42.51,3.43h-1l.51,3.43h-2l.51,3.42h4l.51-3.42h2l.51-3.43h1l.51-3.43.51-3.42h3l.52-3.43h-3l.51-3.43.51-3.43h-1l.51-3.43.51-3.43h2.31v6.86h1v6.86h3v3.43h-3v6.85h-1v3.43h-2v3.42h8.74v-3.42h2v-3.43h1v-6.85h3v-3.43h-3v-6.86h-1v-6.86Zm-26.58-3.43v-8.84h.52l.25,2,.1.74.4,2.69.51,3.43Zm17.84-6.86v6.86h-.48l-.36,2.79h-.17l-.36-2.79h-.42l.51-3.43.4-2.69.1-.74.25-2h.53Zm8,10.29h-2.31l.52-3.43h1.79Z"/>
    <polygon class="fill-current" points="204.11 158.28 204.11 154.86 207.11 154.86 207.11 151.43 204.11 151.43 204.11 148 204.11 144.57 203.11 144.57 203.11 141.19 211.85 141.19 211.85 141.14 211.85 137.71 219.85 137.71 219.85 134.28 211.85 134.28 211.85 130.87 203.11 130.87 203.11 130.85 203.11 127.42 203.11 124 202.11 124 202.11 120.57 202.11 117.14 200.11 117.14 200.11 113.99 212.26 113.99 212.26 113.71 212.26 110.28 215.26 110.28 215.26 109.79 215.26 106.36 215.26 104.28 193.67 104.28 193.67 106.36 193.67 109.79 193.67 110.28 190.67 110.28 190.67 113.71 190.67 117.14 192.67 117.14 192.67 120.57 192.67 124 193.67 124 193.67 127.42 193.67 130.85 193.67 134.28 201.67 134.28 201.67 137.71 193.67 137.71 193.67 141.14 193.67 144.57 194.67 144.57 194.67 148 194.67 151.43 197.67 151.43 197.67 154.86 194.67 154.86 194.67 158.28 194.67 161.71 193.67 161.71 193.67 165.14 191.67 165.14 191.67 168.56 213.26 168.56 213.26 165.14 215.26 165.14 215.26 161.71 216.26 161.71 216.26 158.85 204.11 158.85 204.11 158.28"/>
    <polygon class="fill-current" points="230.97 158.28 230.97 154.86 233.97 154.86 233.97 151.43 230.97 151.43 230.97 148 230.97 144.57 229.97 144.57 229.97 141.14 229.97 137.71 237.97 137.71 237.97 134.28 229.97 134.28 229.97 130.85 229.97 127.42 229.97 124 228.97 124 228.97 120.57 228.97 117.14 226.97 117.14 226.97 113.71 226.97 110.28 229.97 110.28 229.97 109.79 229.97 106.36 229.97 104.28 220.53 104.28 220.53 106.36 220.53 109.79 220.53 110.28 217.53 110.28 217.53 113.71 217.53 117.14 219.53 117.14 219.53 120.57 219.53 124 220.53 124 220.53 127.42 220.53 130.85 220.53 134.28 228.53 134.28 228.53 137.71 220.53 137.71 220.53 141.14 220.53 144.57 221.53 144.57 221.53 148 221.53 151.43 224.53 151.43 224.53 154.86 221.53 154.86 221.53 158.28 221.53 161.71 220.53 161.71 220.53 165.14 218.53 165.14 218.53 168.56 240.48 168.56 240.48 165.14 242.48 165.14 242.48 161.71 243.48 161.71 243.48 159.81 230.97 159.81 230.97 158.28"/>
  </g>
  <g class="blend-screen text-glitch-red">
    <path class="fill-current" d="M123.55,93.71V92.65h-1V85H110V82.36h1V72.08h7V65.22h-4V61.79h-3V51.5h-7V48.07h7V29.44h-9.45V48.07H96.85a33.25,33.25,0,0,0-.23-3.43A25.64,25.64,0,0,0,96,41.22a18.65,18.65,0,0,0-1.25-3.43,14.65,14.65,0,0,0-2.25-3.43,12.28,12.28,0,0,0-.86-.9,13.42,13.42,0,0,0-3.8-2.53,18.27,18.27,0,0,0-7.57-1.49H70.8V48.07h-7V51.5h7V61.79h3v3.43h4v6.86h-7V82.36h-1V92.65h1v1.06h9.44V92.65h-1V82.36h1V72.08h7V68a16.89,16.89,0,0,0,9.59-2.79h-4a14.88,14.88,0,0,0,1.78-1.41,14.41,14.41,0,0,0,1.76-2h-3a16.67,16.67,0,0,0,1.86-3.43,22,22,0,0,0,1-3.43,28.07,28.07,0,0,0,.48-3.43h4.85V61.79h3v3.43h4v6.86h-7V82.36h-1V92.65h1v1.06ZM80.33,49c0,.91,0,1.73-.06,2.48h7a13.7,13.7,0,0,1-.54,3.43A5,5,0,0,1,86,56.37c-.94,1.34-2.53,1.89-5,2l-.82,0V51.5h-7V48.07h7v-9c2.81,0,4.62.67,5.68,2.17a.87.87,0,0,1,.09.11,7.82,7.82,0,0,1,1.08,3.31,28.23,28.23,0,0,1,.23,3.43h-7C80.32,48.38,80.33,48.7,80.33,49ZM94.59,51.5H89.74c.08-.9.12-1.84.12-2.83,0-.2,0-.4,0-.6h4.74Z"/>
    <path class="fill-current" d="M189.6,93.71V92.65h-1V82.36h1V72.08h7V65.22h-4V61.79h-3V51.5h-7V48.07h7V29.44H178.05l-.28,1.49-.65,3.43-.66,3.43-.65,3.43-.65,3.42-.65,3.43h-5.15l-.65-3.43-.65-3.42-.66-3.43-.65-3.43-.65-3.43-.29-1.49H154.27V48.07h-7V51.5h7V61.79h3v3.43h4v6.86h-7V82.36h-1V92.65h1v1.06H163V92.65h-1V82.36h1V72.08h3.67l.51,3.42.52,3.43.51,3.43h-1l.51,3.43.51,3.43.51,3.43h1l.16,1.06h4l.15-1.06h-1l.52-3.43.51-3.43.51-3.43h1l.51-3.43.52-3.43.51-3.42h3.67V82.36h-1V92.65h1v1.06ZM156,51.5v-.9h.52l.11.9Zm7,10.29V51.5h0l-.66-3.43h5.15l-.66,3.43h-3.2l.24,1.81.24,1.62.51,3.43.51,3.43Zm3,3.43V61.79h2.13l.52,3.43Zm4,6.86V65.22h2.65l.51,3.43.51,3.43Zm3.83-20.58h0l-.65,3.43-.65,3.43-.09.46-.38,3h-.29l-.38-3-.09-.46-.65-3.43L170,51.5h3.19l.12-.9h.52ZM175,62.23h-.17l-.06-.44h.29Zm9.67,6.42.51-3.43h2.65v6.86h-3.67Zm-3-6.86h2.14v3.43H181.2Zm-3,0,.52-3.43.51-3.43.24-1.62.23-1.81h.64V61.79Z"/>
    <polygon class="fill-current" points="263.64 41.22 263.64 44.64 263.64 48.07 256.64 48.07 256.64 51.5 263.64 51.5 263.64 54.93 263.64 58.36 263.64 61.79 266.64 61.79 266.64 65.22 270.64 65.22 270.64 68.65 270.64 72.08 263.64 72.08 263.64 75.5 263.64 78.93 263.64 82.36 262.64 82.36 262.64 85.79 262.64 89.22 262.64 92.65 263.64 92.65 263.64 93.71 273.08 93.71 273.08 92.65 272.08 92.65 272.08 89.22 272.08 85.79 272.08 82.36 273.08 82.36 273.08 78.93 273.08 75.5 273.08 72.08 280.08 72.08 280.08 68.65 280.08 65.22 276.08 65.22 276.08 61.79 273.08 61.79 273.08 58.36 273.08 54.93 273.08 51.5 266.08 51.5 266.08 48.07 273.08 48.07 273.08 44.64 273.08 41.22 273.08 39.14 282 39.14 282 37.79 282 34.36 282 30.93 282 29.44 254.71 29.44 254.71 30.93 254.71 34.36 254.71 37.79 254.71 39.14 263.64 39.14 263.64 41.22"/>
    <path class="fill-current" d="M216.48,51.5h7V61.79h3v3.43h4v6.86h-7V82.36h-1V92.65h1v1.06h8.65V92.65h-1V82.36h1V72.08h4.57l.94,3.42.94,3.43.94,3.43h-1l.94,3.43.94,3.43.94,3.43h1l.29,1.06H251V92.65h-1V82.36h1V72.08h7V65.22h-4V61.79h-3V51.5h-7V48.07h7V29.44h-8.66V48.07H237L236,44.64l-.94-3.42-.94-3.43-.94-3.43-.94-3.43-.41-1.49h-8.39V48.07h-7Zm15.65,10.29V57.24h.53l.3,1.12.49,1.86.43,1.57Zm17.24,3.43v.68h-.53l-.18-.68Zm-4-3.43v3.43h-.71l-.6-2.29-.32-1.14Zm-2.61,6.86.94,3.43h-4.57V65.22h2.69Zm-.39-17.15V61.79h-1.63l-.94-3.43-.94-3.43-.94-3.43Zm-5.49,10.29.94,3.43h-2.69V61.79Zm-1.51-13.72V51.5h-4.45L230,48.07Z"/>
    <polygon class="fill-current" points="12 54.93 12 58.36 12 61.79 15 61.79 15 65.22 19 65.22 19 68.65 19 72.08 12 72.08 12 75.5 12 78.93 12 82.36 11 82.36 11 85.79 11 89.22 11 92.65 12 92.65 12 93.71 21.45 93.71 21.45 92.65 20.45 92.65 20.45 89.22 20.45 85.79 20.45 82.36 21.45 82.36 21.45 78.93 21.45 75.5 21.45 72.08 28.45 72.08 28.45 68.65 28.45 65.22 24.45 65.22 24.45 61.79 21.45 61.79 21.45 58.36 21.45 54.93 21.45 51.5 14.45 51.5 14.45 48.07 21.45 48.07 21.45 44.64 21.45 41.22 21.45 37.79 21.45 34.36 21.45 30.93 21.45 29.44 12 29.44 12 30.93 12 34.36 12 37.79 12 41.22 12 44.64 12 48.07 5 48.07 5 51.5 12 51.5 12 54.93"/>
    <path class="fill-current" d="M28.45,54.93v6.86h3v3.43h4v6.86h-7V82.36h-1V92.65h1v1.06H37.2V92.65h-1V82.36h1V72.08h3.67l.51,3.42.52,3.43.51,3.43h-1l.51,3.43.51,3.43.51,3.43h1l.16,1.06h4l.15-1.06h-1l.52-3.43.51-3.43.51-3.43h1l.51-3.43.52-3.43.51-3.42H55V82.36H54V92.65h1v1.06h8.75V92.65h-1V82.36h1V72.08h7V65.22h-4V61.79h-3V51.5h-7V48.07h7V29.44H52.23L52,30.93l-.65,3.43-.66,3.43L50,41.22l-.65,3.42-.65,3.43H43.54l-.65-3.43-.65-3.42-.66-3.43-.65-3.43-.65-3.43L40,29.44H28.45V48.07h-7V51.5h7ZM58.87,68.65l.51-3.43H62v6.86H58.36Zm-3-6.86H58v3.43H55.38Zm-2.48-3.43.51-3.43.24-1.62.23-1.81H55V61.79H52.89Zm-4.15,3.43-.06.44H49L49,61.79ZM47.39,51.5l.12-.9H48v.9h0l-.65,3.43-.65,3.43-.09.46-.38,3H46l-.38-3-.09-.46-.65-3.43L44.2,51.5ZM44.2,68.65V65.22h2.65l.51,3.43.51,3.43H44.2Zm-1.87-6.86.52,3.43H40.2V61.79Zm-.64-13.72L41,51.5H37.84l.23,1.81.24,1.62.51,3.43.51,3.43H37.2V51.5h0l-.66-3.43ZM30.2,50.6h.52l.12.9H30.2Z"/>
    <polygon class="fill-current" points="127.41 54.93 127.41 58.36 127.41 61.79 130.41 61.79 130.41 65.22 134.41 65.22 134.41 68.65 134.41 72.08 127.41 72.08 127.41 75.5 127.41 78.93 127.41 82.36 126.41 82.36 126.41 85.79 126.41 89.22 126.41 92.65 127.41 92.65 127.41 93.71 149.01 93.71 149.01 92.65 148.01 92.65 148.01 89.22 148.01 85.79 148.01 84.01 135.85 84.01 135.85 82.36 136.85 82.36 136.85 78.93 136.85 75.5 136.85 72.08 143.85 72.08 143.85 68.65 143.85 66.34 152.6 66.34 152.6 65.22 148.6 65.22 148.6 61.79 145.6 61.79 145.6 58.36 145.6 56.02 136.85 56.02 136.85 54.93 136.85 51.5 129.85 51.5 129.85 48.07 136.85 48.07 136.85 44.64 136.85 41.22 136.85 39.14 149.01 39.14 149.01 37.79 149.01 34.36 149.01 30.93 149.01 29.44 127.41 29.44 127.41 30.93 127.41 34.36 127.41 37.79 127.41 41.22 127.41 44.64 127.41 48.07 120.41 48.07 120.41 51.5 127.41 51.5 127.41 54.93"/>
    <polygon class="fill-current" points="196.62 54.93 196.62 58.36 196.62 61.79 199.62 61.79 199.62 65.22 203.62 65.22 203.62 68.65 203.62 72.08 196.62 72.08 196.62 75.5 196.62 78.93 196.62 82.36 195.62 82.36 195.62 85.79 195.62 89.22 195.62 92.65 196.62 92.65 196.62 93.71 218.21 93.71 218.21 92.65 217.21 92.65 217.21 89.22 217.21 85.79 217.21 84.01 205.06 84.01 205.06 82.36 206.06 82.36 206.06 78.93 206.06 75.5 206.06 72.08 213.06 72.08 213.06 68.65 213.06 66.34 221.8 66.34 221.8 65.22 217.8 65.22 217.8 61.79 214.8 61.79 214.8 58.36 214.8 56.02 206.06 56.02 206.06 54.93 206.06 51.5 199.06 51.5 199.06 48.07 206.06 48.07 206.06 44.64 206.06 41.22 206.06 39.14 218.21 39.14 218.21 37.79 218.21 34.36 218.21 30.93 218.21 29.44 196.62 29.44 196.62 30.93 196.62 34.36 196.62 37.79 196.62 41.22 196.62 44.64 196.62 48.07 189.62 48.07 189.62 51.5 196.62 51.5 196.62 54.93"/>
    <polygon class="fill-current" points="119.06 137.71 111.06 137.71 111.06 141.14 111.06 142.06 169.39 142.06 169.39 141.14 169.39 137.71 177.39 137.71 177.39 134.77 119.06 134.77 119.06 137.71"/>
    <path class="fill-current" d="M278.67,137.71h8v-3.43h-8V124h-1v-6.86h-2v-6.86h3v-4H267.13l0,.08-.65,3.43-.09.49h-3l-.66,3.43-.65,3.43h2l-.65,3.43-.66,3.43h1l-.65,3.42-.65,3.43-.65,3.43h-.22l.51,3.43h-.82l-.18,1.36h-.17l-.18-1.36h-.65v-3.43h.13l-.66-3.43-.65-3.43-.65-3.42h-1l-.65-3.43-.66-3.43h-2l-.65-3.43-.65-3.43h3l-.1-.49-.65-3.43v-.08H243.34v4h-3v6.86h2V124h1v10.28h8v3.43h-8v6.86h1v6.86h3v3.43h-3v6.85h-1v3.43h-2v5.42h8.75v-5.42h2v-3.43h1v-6.85h3v-3.43h-3v-6.86h-1v-6.86h2l.51,3.43.51,3.43h1l.51,3.43.52,3.43h3l.51,3.43h-3l.51,3.42.51,3.43h-1l.51,3.43h-2l.52,3.43.29,2h4l.29-2,.52-3.43h2l.51-3.43h1l.51-3.43.51-3.42h3l.51-3.43h-3l.52-3.43.51-3.43h-1l.51-3.43.51-3.43h.82l-.26-2-.26-1.39h.21l.52-3.43.1-.69.35-2.72h.53v6.84h-.13l-.27,1.39-.26,2h.66v6.86h1v6.86h3v3.43h-3v6.85h-1v3.43h-2v5.42h8.74v-5.42h2v-3.43h1v-6.85h3v-3.43h-3v-6.86h-1v-6.86Zm-26.58-3.43v-6.84h.52l.35,2.72.1.69.52,3.43Zm25.84,3.43h-2l.51-3.43h1.5Z"/>
    <path class="fill-current" d="M88.58,148v-3.43h-1v-6.73H74.38v6.73h1v1.22h3.76v5.64h3v3.43h-3v2.57a7.69,7.69,0,0,1,0,.85,4.57,4.57,0,0,1-.31,1.5,3.2,3.2,0,0,1-1.23,1.93h-1a2.7,2.7,0,0,1-1.57.44,2.57,2.57,0,0,1-1.51-.44h1a2.1,2.1,0,0,1-.33-.26,5.1,5.1,0,0,1-1.27-3.17c0-.27,0-.55,0-.85v-2.57h3v-3.43h-3v-6.86h-1v-6.86h8v-3.43h-8V124h-1v-5.23a8.37,8.37,0,0,1,.15-1.63H69a5.59,5.59,0,0,1,.2-.73,2.92,2.92,0,0,1,2.8-2.36,2.68,2.68,0,0,1,1.92.7A5.13,5.13,0,0,1,75,117.14h2a8.87,8.87,0,0,1,.15,1.63V124h1v4.65h9.44V124h-1v-5.23a14.53,14.53,0,0,0-.13-1.63h-2a17.83,17.83,0,0,0-.72-3.43,15.77,15.77,0,0,0-.72-1.85,14.39,14.39,0,0,0-.86-1.58h3l-.33-.49a11.63,11.63,0,0,0-2.57-2.73,11.77,11.77,0,0,0-1.08-.7A12.29,12.29,0,0,0,75,104.87a12.7,12.7,0,0,0-6.26,1.49,10.71,10.71,0,0,0-1.09.7,10.86,10.86,0,0,0-2.53,2.73c-.11.16-.21.33-.31.49h-3a16,16,0,0,0-.83,1.58,14.15,14.15,0,0,0-.71,1.85,17.11,17.11,0,0,0-.73,3.43h2c-.06.53-.11,1.08-.13,1.63V124h1v10.28H56V124H55v-6.86H53v-6.86h3v-4.71H47.34v4.71h-3v6.86h2V124h1v10.28H45.87l.55,2.07.37,1.36h.55V142h-.52l-.24-.89L46,139.06l-.37-1.35h-.55v-3.43h-.39l-.94-3.43-.94-3.43L41.9,124h-1L40,120.57,39,117.14H37l-.94-3.43-.94-3.43h3l-.14-.49-.94-3.43-.22-.79H28.45v4.71h-3v6.86h2V124h1v10.28h-7V124h-1v-6.86h-2v-6.86h3v-4.71H12v4.71H9v6.86h2V124h1v10.28h8v3.43H12v6.86h1v6.86h3v3.43H13v6.85H12v3.43H10v4.7h9.45v-4.7h2v-3.43h1v-6.85h3v-3.43h-3v-6.86h-1v-6.86h7v6.86h1v6.86h3v3.43h-3v6.85h-1v3.43h-2v4.7h8.66v-4.7h2v-3.43h1v-6.85h3v-3.43h-3v-6.86h-1v-6.86h1.68l.94,3.43.94,3.43h1l.94,3.43.94,3.43h3l.94,3.43h-3l.94,3.42.94,3.43h-1l.94,3.43h-2l.94,3.43.35,1.27H54v-4.7h2v-3.43h1v-6.85h3v-3.43H57v-6.86H56v-6.86h6.4v6.86h1v6.86h3v3.43h-3v1.78c0,.56,0,1.11,0,1.64a17.53,17.53,0,0,0,.46,3.43h-1a13.1,13.1,0,0,0,.58,1.93,12.87,12.87,0,0,0,.72,1.5h-2a11.18,11.18,0,0,0,2.6,3.22l.27.21a9.71,9.71,0,0,0,6.46,2,8.87,8.87,0,0,0,5.53-2,10.63,10.63,0,0,0,1.82-1.79l.66,1.79.48,1.27h5.59v-4.7h2v-3.43h1v-6.85h3v-3.43h-3ZM36.45,137.71h-7v-3.43h7Zm.66-3.43v-.91h.52l.24.91Zm18.23,3.43H53.66l-.94-3.43h2.62Zm15.06,0H64v-3.43h6.4Z"/>
    <polygon class="fill-current" points="201.11 158.28 201.11 154.86 204.11 154.86 204.11 151.43 201.11 151.43 201.11 148 201.11 144.57 200.11 144.57 200.11 143.19 208.85 143.19 208.85 141.14 208.85 137.71 216.85 137.71 216.85 134.28 208.85 134.28 208.85 132.87 200.11 132.87 200.11 130.85 200.11 127.42 200.11 124 199.11 124 199.11 120.57 199.11 117.14 197.11 117.14 197.11 115.99 209.26 115.99 209.26 113.71 209.26 110.28 212.26 110.28 212.26 109.79 212.26 106.36 212.26 106.28 190.67 106.28 190.67 106.36 190.67 109.79 190.67 110.28 187.67 110.28 187.67 113.71 187.67 117.14 189.67 117.14 189.67 120.57 189.67 124 190.67 124 190.67 127.42 190.67 130.85 190.67 134.28 198.67 134.28 198.67 137.71 190.67 137.71 190.67 141.14 190.67 144.57 191.67 144.57 191.67 148 191.67 151.43 194.67 151.43 194.67 154.86 191.67 154.86 191.67 158.28 191.67 161.71 190.67 161.71 190.67 165.14 188.67 165.14 188.67 168.57 188.67 170.56 210.26 170.56 210.26 168.57 210.26 165.14 212.26 165.14 212.26 161.71 213.26 161.71 213.26 160.85 201.11 160.85 201.11 158.28"/>
    <polygon class="fill-current" points="226.97 161.71 227.97 161.71 227.97 158.28 227.97 154.86 230.97 154.86 230.97 151.43 227.97 151.43 227.97 148 227.97 144.57 226.97 144.57 226.97 141.14 226.97 137.71 234.97 137.71 234.97 134.28 226.97 134.28 226.97 130.85 226.97 127.42 226.97 124 225.97 124 225.97 120.57 225.97 117.14 223.97 117.14 223.97 113.71 223.97 110.28 226.97 110.28 226.97 109.79 226.97 106.36 226.97 106.28 217.53 106.28 217.53 106.36 217.53 109.79 217.53 110.28 214.53 110.28 214.53 113.71 214.53 117.14 216.53 117.14 216.53 120.57 216.53 124 217.53 124 217.53 127.42 217.53 130.85 217.53 134.28 225.53 134.28 225.53 137.71 217.53 137.71 217.53 141.14 217.53 144.57 218.53 144.57 218.53 148 218.53 151.43 221.53 151.43 221.53 154.86 218.53 154.86 218.53 158.28 218.53 161.71 217.53 161.71 217.53 165.14 215.53 165.14 215.53 168.57 215.53 170.56 237.48 170.56 237.48 168.57 237.48 165.14 239.48 165.14 239.48 161.81 226.97 161.81 226.97 161.71"/>
  </g>
  <g class="blend-screen text-glitch-blue">
    <polygon class="fill-current" points="269.64 41.22 269.64 44.64 269.64 48.07 262.64 48.07 262.64 51.5 269.64 51.5 269.64 54.93 269.64 58.36 269.64 61.79 272.64 61.79 272.64 65.22 276.64 65.22 276.64 68.65 276.64 72.08 269.64 72.08 269.64 75.5 269.64 78.93 269.64 82.36 268.64 82.36 268.64 85.79 268.64 89.22 268.64 92.65 269.64 92.65 269.64 95.71 279.08 95.71 279.08 92.65 278.08 92.65 278.08 89.22 278.08 85.79 278.08 82.36 279.08 82.36 279.08 78.93 279.08 75.5 279.08 72.08 286.08 72.08 286.08 68.65 286.08 65.22 282.08 65.22 282.08 61.79 279.08 61.79 279.08 58.36 279.08 54.93 279.08 51.5 272.08 51.5 272.08 48.07 279.08 48.07 279.08 44.64 279.08 41.22 279.08 41.14 288 41.14 288 37.79 288 34.36 288 31.44 260.71 31.44 260.71 34.36 260.71 37.79 260.71 41.14 269.64 41.14 269.64 41.22"/>
    <polygon class="fill-current" points="18 54.93 18 58.36 18 61.79 21 61.79 21 65.22 25 65.22 25 68.65 25 72.08 18 72.08 18 75.5 18 78.93 18 82.36 17 82.36 17 85.79 17 89.22 17 92.65 18 92.65 18 95.71 27.45 95.71 27.45 92.65 26.45 92.65 26.45 89.22 26.45 85.79 26.45 82.36 27.45 82.36 27.45 78.93 27.45 75.5 27.45 72.08 34.45 72.08 34.45 68.65 34.45 65.22 30.45 65.22 30.45 61.79 27.45 61.79 27.45 58.36 27.45 54.93 27.45 51.5 20.45 51.5 20.45 48.07 27.45 48.07 27.45 44.64 27.45 41.22 27.45 37.79 27.45 34.36 27.45 31.44 18 31.44 18 34.36 18 37.79 18 41.22 18 44.64 18 48.07 11 48.07 11 51.5 18 51.5 18 54.93"/>
    <path class="fill-current" d="M34.45,54.93v6.86h3v3.43h4v6.86h-7V82.36h-1V92.65h1v3.06H43.2V92.65h-1V82.36h1V72.08h3.37l.51,3.42.52,3.43.51,3.43h-1l.51,3.43.51,3.43.52,3.43h1l.45,3.06h4l.45-3.06h-1l.52-3.43.51-3.43.51-3.43h1l.51-3.43.51-3.43.52-3.42H61V82.36H60V92.65h1v3.06h8.75V92.65h-1V82.36h1V72.08h7V65.22h-4V61.79h-3V51.5h-7V48.07h7V31.44H58.23l-.55,2.92L57,37.79l-.66,3.43-.65,3.42-.65,3.43H49.16l-.65-3.43-.65-3.42-.66-3.43-.65-3.43L46,31.44H34.45V48.07h-7V51.5h7Zm8.75,3.43V52.6h.52l.3,2.33,0,.38.45,3L45,61.79H43.2Zm3,3.43H48l.51,3.43H46.2Zm4,10.29V65.22h2.35l.51,3.43.51,3.43Zm5.31-10.29-.31,2.44H55l-.31-2.44ZM68,68.65v3.43H64.66l.51-3.43.51-3.43H68Zm-4-3.43H61.68l.51-3.43H64Zm-3-6.86v3.43H59.19l.52-3.43.45-3,.05-.38.3-2.33H61v5.76ZM54.41,51.5l-.65,3.43-.65,3.43-.47,2.46-.13,1h-.79l-.13-1-.47-2.46-.65-3.43-.65-3.43ZM42.16,48.07h5.91l-.66,3.43H42.82Z"/>
    <polygon class="fill-current" points="133.41 54.93 133.41 58.36 133.41 61.79 136.41 61.79 136.41 65.22 140.41 65.22 140.41 68.65 140.41 72.08 133.41 72.08 133.41 75.5 133.41 78.93 133.41 82.36 132.41 82.36 132.41 85.79 132.41 89.22 132.41 92.65 133.41 92.65 133.41 95.71 155.01 95.71 155.01 92.65 154.01 92.65 154.01 89.22 154.01 86.01 141.85 86.01 141.85 85.79 141.85 82.36 142.85 82.36 142.85 78.93 142.85 75.5 142.85 72.08 149.85 72.08 149.85 68.65 149.85 68.34 158.6 68.34 158.6 65.22 154.6 65.22 154.6 61.79 151.6 61.79 151.6 58.36 151.6 58.02 142.85 58.02 142.85 54.93 142.85 51.5 135.85 51.5 135.85 48.07 142.85 48.07 142.85 44.64 142.85 41.22 142.85 41.14 155.01 41.14 155.01 37.79 155.01 34.36 155.01 31.44 133.41 31.44 133.41 34.36 133.41 37.79 133.41 41.22 133.41 44.64 133.41 48.07 126.41 48.07 126.41 51.5 133.41 51.5 133.41 54.93"/>
    <polygon class="fill-current" points="202.62 54.93 202.62 58.36 202.62 61.79 205.62 61.79 205.62 65.22 209.62 65.22 209.62 68.65 209.62 72.08 202.62 72.08 202.62 75.5 202.62 78.93 202.62 82.36 201.62 82.36 201.62 85.79 201.62 89.22 201.62 92.65 202.62 92.65 202.62 95.71 224.21 95.71 224.21 92.65 223.21 92.65 223.21 89.22 223.21 86.01 211.06 86.01 211.06 85.79 211.06 82.36 212.06 82.36 212.06 78.93 212.06 75.5 212.06 72.08 219.06 72.08 219.06 68.65 219.06 68.34 227.8 68.34 227.8 65.22 223.8 65.22 223.8 61.79 220.8 61.79 220.8 58.36 220.8 58.02 212.06 58.02 212.06 54.93 212.06 51.5 205.06 51.5 205.06 48.07 212.06 48.07 212.06 44.64 212.06 41.22 212.06 41.14 224.21 41.14 224.21 37.79 224.21 34.36 224.21 31.44 202.62 31.44 202.62 34.36 202.62 37.79 202.62 41.22 202.62 44.64 202.62 48.07 195.62 48.07 195.62 51.5 202.62 51.5 202.62 54.93"/>
    <path class="fill-current" d="M247.79,92.65l.84,3.06H257V92.65h-1V82.36h1V72.08h7V65.22h-4V61.79h-3V51.5h-7V48.07h7V31.44h-8.66V48.07h-5.94l-.94-3.43-.94-3.42-.94-3.43-.94-3.43-.8-2.92h-8.39V48.07h-7V51.5h7V61.79h3v3.43h4v6.86h-7V82.36h-1V92.65h1v3.06h8.65V92.65h-1V82.36h1V72.08h4l.94,3.42.94,3.43.94,3.43h-1l.94,3.43.94,3.43.94,3.43Zm7.58-24.75h-.53l-.71-2.68h1.24Zm-4-2.68h-1.24l-.07-.29-.86-3.14h2.17ZM235.43,48.07h5.94V51.5h-5Zm8.88,6.86-.94-3.43h5V61.79H246.2l-.95-3.43Zm-6.18,4.31h.53l.68,2.55h-1.21Zm3,2.55h1.21l.11.43.82,3h-2.14Zm4,6.86V65.22h2.14l.94,3.43.94,3.43h-4Z"/>
    <path class="fill-current" d="M129.55,95.71V92.65h-1V87H116V82.36h1V72.08h7V65.22h-4V61.79h-3V51.5h-7V48.07h7V31.44h-9.45V48.07h-4.83a26.84,26.84,0,0,0-.46-3.43,20.22,20.22,0,0,0-1-3.42,16.47,16.47,0,0,0-1.76-3.43,13.65,13.65,0,0,0-2-2.33,12.31,12.31,0,0,0-1.33-1.1,16.82,16.82,0,0,0-10-2.92H76.8V48.07h-7V51.5h7V61.79h3v3.43h4v6.86h-7V82.36h-1V92.65h1v3.06h9.44V92.65h-1V82.36h1V72.08h7V70a17.85,17.85,0,0,0,7-1.36,14.73,14.73,0,0,0,4.4-2.84c.2-.19.4-.39.59-.59h-4a15,15,0,0,0,2.38-3.43h-3a18.69,18.69,0,0,0,1.32-3.43,23.9,23.9,0,0,0,.69-3.43,30.19,30.19,0,0,0,.25-3.43h4.75V61.79h3v3.43h4v6.86h-7V82.36h-1V92.65h1v3.06ZM86.24,41.22v-.17a12.27,12.27,0,0,1,2.11.17A5.05,5.05,0,0,1,92,43.33a5.49,5.49,0,0,1,.63,1.31,14,14,0,0,1,.6,3.43h-7V41.22ZM92,58.36h0c-1,1.48-2.88,2-5.77,2V51.5h-7V48.07h7c.06.9.09,1.87.09,3,0,.17,0,.32,0,.48h7a30.8,30.8,0,0,1-.18,3.43A7.11,7.11,0,0,1,92,58.36Zm3.82-6.86c0-.27,0-.54,0-.83,0-.9,0-1.77-.1-2.6h4.83V51.5Z"/>
    <path class="fill-current" d="M195.6,95.71V92.65h-1V82.36h1V72.08h7V65.22h-4V61.79h-3V51.5h-7V48.07h7V31.44H184.05l-.55,2.92-.65,3.43-.66,3.43-.65,3.42-.65,3.43H175l-.65-3.43-.65-3.42L173,37.79l-.65-3.43-.56-2.92H160.27V48.07h-7V51.5h7V61.79h3v3.43h4v6.86h-7V82.36h-1V92.65h1v3.06H169V92.65h-1V82.36h1V72.08h3.37l.51,3.42.52,3.43.51,3.43h-1l.51,3.43.51,3.43.52,3.43h1l.45,3.06h4l.45-3.06h-1l.52-3.43.51-3.43.51-3.43h1l.51-3.43L183,75.5l.52-3.42h3.37V82.36h-1V92.65h1v3.06Zm-5.75-30.49H187.5l.51-3.43h1.84Zm-8.52-3.43L181,64.23h-.17l-.31-2.44Zm5.52-3.43v3.43H185l.52-3.43.45-3,.05-.38.3-2.33h.52v5.76Zm-6.62-6.86-.65,3.43-.65,3.43-.47,2.46-.13,1h-.79l-.13-1-.47-2.46-.65-3.43-.65-3.43ZM168,48.07h5.91l-.66,3.43h-4.59Zm1,10.29V52.6h.52l.3,2.33,0,.38.45,3,.52,3.43H169Zm3,3.43h1.84l.51,3.43H172Zm4,10.29V65.22h2.35l.51,3.43.51,3.43Zm15-3.43.51-3.43h2.35v6.86h-3.37Z"/>
    <polygon class="fill-current" points="125.06 137.71 117.06 137.71 117.06 141.14 117.06 144.06 175.39 144.06 175.39 141.14 175.39 137.71 183.39 137.71 183.39 136.77 125.06 136.77 125.06 137.71"/>
    <path class="fill-current" d="M284.67,137.71h8v-3.43h-8V124h-1v-6.86h-2v-6.86h3v-2H273.13l-.29,1.51-.09.49h-3l-.66,3.43-.65,3.43h2l-.65,3.43-.65,3.43h1l-.66,3.42-.65,3.43-.65,3.43h-.9l.51,3.43h-.26l-.44,3.36h-.17l-.43-3.36h-.4v-3.43h-.25l-.66-3.43-.65-3.43-.65-3.42h-1l-.66-3.43-.65-3.43h-2l-.65-3.43-.65-3.43h3l-.1-.49-.28-1.51H249.34v2h-3v6.86h2V124h1v10.28h8v3.43h-8v6.86h1v6.86h3v3.43h-3v6.85h-1v3.43h-2v7.42h8.75v-7.42h2v-3.43h1v-6.85h3v-3.43h-3v-6.86h-1v-6.86h1.7l.51,3.43.51,3.43h1l.52,3.43.51,3.43h3l.51,3.43h-3l.51,3.42.51,3.43h-1l.52,3.43h-2l.51,3.43.51,3.43.08.56h4l.08-.56.51-3.43.51-3.43h2l.52-3.43h1l.51-3.43.51-3.42h3l.51-3.43h-3l.52-3.43.51-3.43h-1l.51-3.43.51-3.43h.27v0l-.64-3.39h.89l.32-2.12.17-1.31.18-1.41h.53v4.84h.25l-.65,3.39v0h.4v6.86h1v6.86h3v3.43h-3v6.85h-1v3.43h-2v7.42h8.74v-7.42h2v-3.43h1v-6.85h3v-3.43h-3v-6.86h-1v-6.86Zm-26.58-3.43v-4.84h.52l.18,1.41.17,1.31.32,2.12Zm24.64,0h1.2v3.43h-1.71Z"/>
    <path class="fill-current" d="M94.58,148v-3.43h-1v-4.73H80.38v4.73h1v3.22h3.76v3.64h3v3.43h-3v4.57a6.24,6.24,0,0,1-.33,2.28h-1a.64.64,0,0,1,0,.07,2.77,2.77,0,0,1-2.8,2.37,2.56,2.56,0,0,1-1.84-.7,4.76,4.76,0,0,1-1-1.74h1a7.62,7.62,0,0,1-.31-2.28v-4.57h3v-3.43h-3v-6.86h-1v-6.86h8v-3.43h-8V124h-1v-3.23c0-.07,0-.14,0-.2a6.4,6.4,0,0,1,.34-2.16,4.31,4.31,0,0,1,.63-1.27h-2A2.56,2.56,0,0,1,78,116.05a2.68,2.68,0,0,1,1.92.7,4.56,4.56,0,0,1,.27.39h2a6,6,0,0,1,.95,3.43c0,.07,0,.13,0,.2V124h1v6.65h9.44V124h-1v-3.23c0-.07,0-.13,0-.2a19.85,19.85,0,0,0-.44-3.43h-2A16,16,0,0,0,89,113.86a1.09,1.09,0,0,1-.08-.15,13.06,13.06,0,0,0-2.32-3.43h3l-.52-.49a9.76,9.76,0,0,0-.84-.73A11.77,11.77,0,0,0,81,106.87a12.08,12.08,0,0,0-7.35,2.19,10.32,10.32,0,0,0-.86.73c-.17.16-.33.32-.49.49h-3a13,13,0,0,0-2.24,3.43l-.08.15a16,16,0,0,0-1.12,3.28h2a19.85,19.85,0,0,0-.43,3.43,1.36,1.36,0,0,0,0,.2V124h1v10.28H62V124H61v-6.86H59v-6.86h3v-2.71H53.34v2.71h-3v6.86h2V124h1v10.28H50.17l-.94-3.43-.94-3.43L47.35,124h-1l-.94-3.43-.94-3.43h-2l-.94-3.43-.94-3.43h3l-.14-.49-.61-2.22H34.45v2.71h-3v6.86h2V124h1v10.28h-7V124h-1v-6.86h-2v-6.86h3v-2.71H18v2.71H15v6.86h2V124h1v10.28h8v3.43H18v6.86h1v6.86h3v3.43H19v6.85H18v3.43H16v6.7h9.45v-6.7h2v-3.43h1v-6.85h3v-3.43h-3v-6.86h-1v-6.86h7v6.86h1v6.86h3v3.43h-3v6.85h-1v3.43h-2v6.7h8.66v-6.7h2v-3.43h1v-6.85h3v-3.43h-3v-6.86h-1v-6.86h1.14l.17.64.77,2.79.94,3.43h1l.94,3.43.94,3.43h3l.94,3.43H50l.94,3.42.94,3.43h-1l.94,3.43h-2l.94,3.43.89,3.27H60v-6.7h2v-3.43h1v-6.85h3v-3.43H63v-6.86H62v-6.86h6.4v6.86h1v6.86h3v3.43h-3v3.78a20.5,20.5,0,0,0,.13,3.07h-1a15.78,15.78,0,0,0,.76,3.43h-2a4.83,4.83,0,0,0,.16.5,12.92,12.92,0,0,0,1.65,2.93,10.82,10.82,0,0,0,1.67,1.79,8.15,8.15,0,0,0,2.9,1.64,12.41,12.41,0,0,0,3.83.54,8.68,8.68,0,0,0,3-.54,10.09,10.09,0,0,0,4.35-3.22L86,171.84h5.59v-6.7h2v-3.43h1v-6.85h3v-3.43h-3ZM35.45,137.71v-3.43h7v3.43ZM53.34,144h-.52l-.77-2.89,0-.08-.92-3.35h0v-2.34h.52l.62,2.34h1.09V144Zm5.77-6.32-.94-3.43h3.17v3.43ZM70,134.28h6.4v3.43H70Z"/>
    <polygon class="fill-current" points="206.11 161.71 207.11 161.71 207.11 158.28 207.11 154.86 210.11 154.86 210.11 151.43 207.11 151.43 207.11 148 207.11 145.19 215.85 145.19 215.85 144.57 214.85 144.57 214.85 141.14 214.85 137.71 222.85 137.71 222.85 134.87 214.11 134.87 214.11 134.28 206.11 134.28 206.11 130.85 206.11 127.42 206.11 124 205.11 124 205.11 120.57 205.11 117.99 217.26 117.99 217.26 117.14 215.26 117.14 215.26 113.71 215.26 110.28 218.26 110.28 218.26 109.79 218.26 108.28 196.67 108.28 196.67 109.79 196.67 110.28 193.67 110.28 193.67 113.71 193.67 117.14 195.67 117.14 195.67 120.57 195.67 124 196.67 124 196.67 127.42 196.67 130.85 196.67 134.28 204.67 134.28 204.67 137.71 196.67 137.71 196.67 141.14 196.67 144.57 197.67 144.57 197.67 148 197.67 151.43 200.67 151.43 200.67 154.86 197.67 154.86 197.67 158.28 197.67 161.71 196.67 161.71 196.67 165.14 194.67 165.14 194.67 168.57 194.67 172 194.67 172.56 216.26 172.56 216.26 172 216.26 168.57 216.26 165.14 218.26 165.14 218.26 162.85 206.11 162.85 206.11 161.71"/>
    <polygon class="fill-current" points="232.97 161.71 233.97 161.71 233.97 158.28 233.97 154.86 236.97 154.86 236.97 151.43 233.97 151.43 233.97 148 233.97 144.57 232.97 144.57 232.97 141.14 232.97 137.71 240.97 137.71 240.97 134.28 232.97 134.28 232.97 130.85 232.97 127.42 232.97 124 231.97 124 231.97 120.57 231.97 117.14 229.97 117.14 229.97 113.71 229.97 110.28 232.97 110.28 232.97 109.79 232.97 108.28 223.53 108.28 223.53 109.79 223.53 110.28 220.53 110.28 220.53 113.71 220.53 117.14 222.53 117.14 222.53 120.57 222.53 124 223.53 124 223.53 127.42 223.53 130.85 223.53 134.28 231.53 134.28 231.53 137.71 223.53 137.71 223.53 141.14 223.53 144.57 224.53 144.57 224.53 148 224.53 151.43 227.53 151.43 227.53 154.86 224.53 154.86 224.53 158.28 224.53 161.71 223.53 161.71 223.53 165.14 221.53 165.14 221.53 168.57 221.53 172 221.53 172.56 243.48 172.56 243.48 172 243.48 168.57 243.48 165.14 245.48 165.14 245.48 163.81 232.97 163.81 232.97 161.71"/>
  </g>
</svg>