<svg xmlns="http://www.w3.org/2000/svg" viewBox="0 0 300 200">
  <g class="blend-screen text-glitch-blue">
    <polygon class="fill-current" points="20.59 65.94 15.41 85.25 15.41 105.37 24.86 105.37 24.86 50.02 30.03 30.7 30.03 21.78 20.59 21.78 20.59 65.94"/>
    <polygon class="fill-current" points="269.02 172.56 270.27 164.17 268.02 172.56 269.02 172.56"/>
    <polygon class="fill-current" points="275.93 172.56 284.67 172.56 284.67 110.42 275.93 143.06 275.93 172.56"/>
    <polygon class="fill-current" points="24.86 117.23 15.41 117.23 15.41 181.5 17.23 181.5 24.86 153.02 24.86 117.23"/>
    <polygon class="fill-current" points="40.61 94.24 40.61 62.26 41.13 62.26 41.48 64.97 43.98 81.67 48.16 66.06 43.41 41.1 31.86 41.1 31.86 105.37 37.63 105.37 40.61 94.24"/>
    <polygon class="fill-current" points="31.86 126.89 34.45 117.23 31.86 117.23 31.86 126.89"/>
    <polygon class="fill-current" points="43.2 95.71 43.2 84.58 40.21 95.71 43.2 95.71"/>
    <polygon class="fill-current" points="76.8 31.44 76.8 62.18 85.03 31.44 76.8 31.44"/>
    <polygon class="fill-current" points="27.45 171.84 27.45 143.36 19.81 171.84 27.45 171.84"/>
    <polygon class="fill-current" points="53.34 144.03 52.82 144.03 52.03 141.06 42.84 107.57 37.04 107.57 34.45 117.23 34.45 171.84 43.11 171.84 43.11 135.37 43.63 135.37 44.42 138.35 50.47 160.43 62 117.42 62 107.57 53.34 107.57 53.34 144.03"/>
    <polygon class="fill-current" points="50.1 95.71 54.13 95.71 60.16 55.31 60.51 52.6 61.03 52.6 61.03 95.71 67.81 95.71 69.78 88.37 69.78 31.44 58.23 31.44 52.64 60.82 52.2 64.23 52.03 64.23 51.59 60.82 50.75 56.4 46.56 72.01 50.1 95.71"/>
    <polygon class="fill-current" points="68.49 93.2 66.52 100.54 68.49 100.54 68.49 93.2"/>
    <polygon class="fill-current" points="52.31 176.67 60.7 176.67 60.7 122.25 49.18 165.26 52.31 176.67"/>
    <path class="fill-current" d="M85,36.27H83.74L75.5,67v33.53H85V74.84a16.29,16.29,0,0,0,11.37-4.2c3.15-3,5.24-7.79,5.24-15.14s-2.09-12.24-5.24-15.21S89.06,36.27,85,36.27ZM90.72,63.2c-1,1.48-2.88,2-5.77,2V45.88c2.89,0,4.72.7,5.77,2.28S92,52.27,92,55.85,91.77,61.81,90.72,63.2Z"/>
    <polygon class="fill-current" points="133.41 31.44 133.41 56.92 140.23 31.44 133.41 31.44"/>
    <path class="fill-current" d="M91,112.1l-1.29,4.83a11.57,11.57,0,0,0-2.78-3,11.72,11.72,0,0,0-7.25-2.19,11.1,11.1,0,0,0-11,7,17.36,17.36,0,0,0-1.57,6.91v37.87a17.55,17.55,0,0,0,1,7,11.68,11.68,0,0,0,3.33,4.72,8.2,8.2,0,0,0,2.26,1.4l1.3-4.83a11.61,11.61,0,0,0,4.46.78,9.38,9.38,0,0,0,7.35-3.76L88,171.84h5.59v-32h-10l-1.29,4.83H79.09v8h1.07l1.3-4.83h2.68v11.64a6.1,6.1,0,0,1-.35,2.35,2.77,2.77,0,0,1-2.8,2.37,2.56,2.56,0,0,1-1.84-.7,4.89,4.89,0,0,1-1.2-2.58l-1.29,4.83a9.07,9.07,0,0,1-.11-1.44V125.6a6.77,6.77,0,0,1,.35-2.36,2.92,2.92,0,0,1,2.8-2.36,2.72,2.72,0,0,1,1.92.7,5.8,5.8,0,0,1,1.23,4v9.88h1.91l1.29-4.83h7.53v-9.88A17.36,17.36,0,0,0,92,113.86,13.5,13.5,0,0,0,91,112.1Z"/>
    <polygon class="fill-current" points="123.01 95.71 125.36 86.97 117.04 86.97 117.04 31.44 112.63 31.44 111.34 36.27 106.3 36.27 106.3 55.08 107.59 50.25 107.59 95.71 123.01 95.71"/>
    <polygon class="fill-current" points="121.72 100.54 128.25 100.54 128.25 91.8 124.06 91.8 121.72 100.54"/>
    <polygon class="fill-current" points="150.61 95.71 155.01 95.71 155.01 86.01 153.21 86.01 151.92 90.84 141.56 90.84 141.56 73.17 150.31 73.17 150.31 62.85 141.56 62.85 141.56 45.97 153.71 45.97 153.71 36.27 138.94 36.27 132.11 61.75 132.11 100.54 149.32 100.54 150.61 95.71"/>
    <polygon class="fill-current" points="138.32 141.6 115.77 141.6 115.77 148.9 136.36 148.9 137.66 144.06 165.26 144.06 167.21 136.77 139.61 136.77 138.32 141.6"/>
    <polygon class="fill-current" points="183.83 81.22 186.01 66.61 182.09 81.22 183.83 81.22"/>
    <polygon class="fill-current" points="206.33 93.79 200.55 93.79 200.55 115.35 197.96 125.01 197.96 167.73 214.12 167.73 216.72 158.02 207.4 158.02 207.4 140.36 216.15 140.36 216.15 130.04 207.4 130.04 207.4 113.16 219.56 113.16 219.56 103.45 203.74 103.45 206.33 93.79"/>
    <polygon class="fill-current" points="169.14 129.58 179.27 129.58 179.27 122.28 171.09 122.28 169.14 129.58"/>
    <polygon class="fill-current" points="199.48 81.22 199.48 16.95 199.32 16.95 195.43 31.44 184.05 31.44 178.46 60.82 178.02 64.23 177.85 64.23 177.41 60.82 171.81 31.44 167.83 31.44 166.54 36.27 158.98 36.27 158.98 64.5 160.27 59.66 160.27 95.71 169.02 95.71 169.02 52.6 169.54 52.6 169.89 55.31 175.92 95.71 178.21 95.71 182.13 81.1 185.98 55.31 186.33 52.6 186.85 52.6 186.85 63.47 190.74 48.98 190.74 81.22 199.48 81.22"/>
    <polygon class="fill-current" points="221.73 36.31 225.51 36.31 225.51 26.61 224.33 26.61 221.73 36.31"/>
    <polygon class="fill-current" points="239.43 73.26 239.43 54.41 239.96 54.41 240.74 57.39 242.23 62.81 245.62 50.15 239.17 26.61 230.77 26.61 230.77 90.88 234.71 90.88 239.43 73.26"/>
    <polygon class="fill-current" points="249.66 26.61 249.66 35.07 251.93 26.61 249.66 26.61"/>
    <polygon class="fill-current" points="207.11 90.88 225.51 90.88 225.51 81.18 213.35 81.18 213.35 67.57 214.44 63.51 222.1 63.51 222.1 53.19 217.21 53.19 215.94 57.91 215.94 53.85 217.03 53.85 219.79 43.53 215.94 43.53 215.94 26.65 224.32 26.65 226.92 16.95 206.5 16.95 206.5 81.22 209.69 81.22 207.11 90.88"/>
    <polygon class="fill-current" points="224.82 127.78 231.34 103.45 224.82 103.45 224.82 127.78"/>
    <polygon class="fill-current" points="238.13 95.71 238.13 78.09 233.41 95.71 238.13 95.71"/>
    <polygon class="fill-current" points="212.82 172.56 218.26 172.56 218.26 162.85 215.42 162.85 212.82 172.56"/>
    <polygon class="fill-current" points="242.76 163.81 232.97 163.81 232.97 108.28 230.04 108.28 223.53 132.61 223.53 172.56 240.42 172.56 242.76 163.81"/>
    <polygon class="fill-current" points="240.94 67.64 248.63 95.71 257.03 95.71 257.03 31.44 250.63 31.44 248.37 39.9 248.37 67.9 247.84 67.9 247.06 64.93 244.33 54.98 240.94 67.64"/>
    <polygon class="fill-current" points="237.83 182.22 242.89 182.22 242.89 173.47 240.18 173.47 237.83 182.22"/>
    <polygon class="fill-current" points="282.08 120.08 282.08 117.94 270.54 117.94 264.94 147.33 264.51 150.73 264.33 150.73 263.89 147.33 258.3 117.94 255.06 117.94 257.64 108.28 249.34 108.28 249.34 139.28 246.75 148.94 246.75 182.22 255.5 182.22 255.5 139.1 256.02 139.1 256.37 141.81 262.4 182.22 265.43 182.22 267.68 173.83 272.46 141.81 272.81 139.1 273.34 139.1 273.34 152.72 282.08 120.08"/>
    <polygon class="fill-current" points="275.65 41.1 278.23 31.44 260.71 31.44 260.71 41.14 269.64 41.14 269.64 63.53 267.05 73.19 267.05 105.37 276.49 105.37 276.49 50.8 285.41 50.8 285.41 41.1 275.65 41.1"/>
  </g>
  <g class="blend-screen text-glitch-green">
    <polygon class="fill-current" points="17.59 77.13 12.41 96.45 12.41 101.37 21.86 101.37 21.86 61.21 27.03 41.89 27.03 17.78 17.59 17.78 17.59 77.13"/>
    <polygon class="fill-current" points="272.93 168.56 281.67 168.56 281.67 121.62 272.93 154.25 272.93 168.56"/>
    <polygon class="fill-current" points="37.61 58.26 38.13 58.26 38.48 60.97 42.43 87.43 55.92 37.1 52.65 37.1 47.05 66.48 46.62 69.89 46.44 69.89 46 66.48 40.41 37.1 28.86 37.1 28.86 101.37 37.61 101.37 37.61 58.26"/>
    <polygon class="fill-current" points="21.86 113.23 12.41 113.23 12.41 177.5 18.3 177.5 20.89 167.84 24.45 167.84 24.45 154.56 21.86 164.22 21.86 113.23"/>
    <polygon class="fill-current" points="28.86 113.23 28.86 138.08 35.52 113.23 28.86 113.23"/>
    <polygon class="fill-current" points="47.1 91.71 51.13 91.71 57.16 51.31 57.51 48.6 58.03 48.6 58.03 91.71 66.78 91.71 66.78 27.44 58.51 27.44 45.02 77.77 47.1 91.71"/>
    <path class="fill-current" d="M83.24,37.05h.29l2.53-9.44a22,22,0,0,0-2.82-.18H73.8V73.38l9.44-35.25Z"/>
    <polygon class="fill-current" points="50.34 140.03 49.82 140.03 49.03 137.06 39.84 103.57 38.11 103.57 31.45 128.42 31.45 167.84 40.11 167.84 40.11 131.37 40.63 131.37 41.42 134.35 49.53 163.94 59 128.61 59 103.57 50.34 103.57 50.34 140.03"/>
    <path class="fill-current" d="M84.76,32.45l-2.53,9.44c2.72,0,4.48.75,5.49,2.27S89,48.27,89,51.85s-.26,6-1.31,7.35-2.88,2-5.77,2V43L72.5,78.21V96.54H82V70.84a16.29,16.29,0,0,0,11.37-4.2c3.15-3,5.24-7.79,5.24-15.14s-2.09-12.24-5.24-15.21A15,15,0,0,0,84.76,32.45Z"/>
    <polygon class="fill-current" points="49.31 172.67 57.7 172.67 57.7 133.44 48.24 168.77 49.31 172.67"/>
    <polygon class="fill-current" points="124.08 91.71 126.43 82.97 114.04 82.97 114.04 27.44 113.71 27.44 112.41 32.27 103.3 32.27 103.3 66.28 104.59 61.45 104.59 91.71 124.08 91.71"/>
    <polygon class="fill-current" points="130.41 27.44 130.41 68.12 141.31 27.44 130.41 27.44"/>
    <path class="fill-current" d="M89.08,119.36a16.24,16.24,0,0,0-1.37-4.67,12.23,12.23,0,0,0-3.76-4.8,11.72,11.72,0,0,0-7.25-2.19,11.1,11.1,0,0,0-11,7,17.36,17.36,0,0,0-1.57,6.91v37.87a17.55,17.55,0,0,0,1,7,11.68,11.68,0,0,0,3.33,4.72,9.28,9.28,0,0,0,6.13,2.16l1.29-4.83.6,0a9.38,9.38,0,0,0,7.35-3.76L85,167.84h5.59v-32H84.66l-1.29,4.83H76.09v8h3.76v5.19L81.14,149v6.45a6.1,6.1,0,0,1-.35,2.35,2.75,2.75,0,0,1-2.64,2.35L76.86,165l-.16,0a2.54,2.54,0,0,1-1.84-.7,5.55,5.55,0,0,1-1.31-4V121.6a6.77,6.77,0,0,1,.35-2.36,2.92,2.92,0,0,1,2.8-2.36,2.72,2.72,0,0,1,1.92.7,5.8,5.8,0,0,1,1.23,4v9.88h6l1.29-4.83h3.46v-9.88a18.09,18.09,0,0,0-.21-2.24Z"/>
    <polygon class="fill-current" points="150.71 95.34 150.71 86.84 138.56 86.84 138.56 69.17 147.31 69.17 147.31 58.85 138.56 58.85 138.56 41.97 150.71 41.97 150.71 32.27 140.01 32.27 129.11 72.95 129.11 96.54 150.39 96.54 150.71 95.34"/>
    <polygon class="fill-current" points="112.77 137.6 112.77 144.9 137.44 144.9 139.39 137.6 112.77 137.6"/>
    <polygon class="fill-current" points="125.25 96.54 125.25 87.8 125.13 87.8 122.79 96.54 125.25 96.54"/>
    <polygon class="fill-current" points="152.01 90.51 151.69 91.71 152.01 91.71 152.01 90.51"/>
    <polygon class="fill-current" points="138.73 140.06 166.33 140.06 168.28 132.77 140.68 132.77 138.73 140.06"/>
    <polygon class="fill-current" points="196.48 77.22 196.48 27.53 192.6 42.02 192.6 27.44 181.05 27.44 175.46 56.82 175.02 60.23 174.85 60.23 174.41 56.82 168.85 27.64 167.56 32.47 167.52 32.27 155.98 32.27 155.98 75.69 157.27 70.86 157.27 91.71 166.02 91.71 166.02 48.6 166.54 48.6 166.89 51.31 172.92 91.71 176.95 91.71 182.98 51.31 183.33 48.6 183.85 48.6 183.85 74.66 187.74 60.17 187.74 77.22 196.48 77.22"/>
    <polygon class="fill-current" points="207.4 89.79 197.55 89.79 197.55 126.55 194.96 136.21 194.96 163.73 215.19 163.73 216.56 158.61 216.56 154.02 204.4 154.02 204.4 136.36 213.15 136.36 213.15 126.04 204.4 126.04 204.4 109.16 216.56 109.16 216.56 99.45 204.81 99.45 207.4 89.79"/>
    <polygon class="fill-current" points="170.21 125.58 176.27 125.58 176.27 118.28 172.16 118.28 170.21 125.58"/>
    <polygon class="fill-current" points="208.18 86.88 222.51 86.88 222.51 77.18 210.78 77.18 213.37 67.52 212.94 67.52 212.94 49.85 218.1 49.85 220.87 39.53 212.94 39.53 212.94 22.65 225.1 22.65 225.1 12.95 203.5 12.95 203.5 77.22 210.77 77.22 208.18 86.88"/>
    <polygon class="fill-current" points="236.43 84.46 236.43 50.41 236.96 50.41 237.74 53.39 241.29 66.32 244.68 53.66 236.17 22.61 227.77 22.61 227.77 86.88 235.78 86.88 236.43 84.46"/>
    <polygon class="fill-current" points="246.66 22.61 246.66 46.27 253 22.61 246.66 22.61"/>
    <polygon class="fill-current" points="221.82 138.97 231.27 103.72 231.27 99.45 221.82 99.45 221.82 138.97"/>
    <polygon class="fill-current" points="219.1 59.51 219.1 49.19 218.28 49.19 215.51 59.51 219.1 59.51"/>
    <polygon class="fill-current" points="243.39 58.49 239.99 71.15 245.63 91.71 254.03 91.71 254.03 27.44 251.71 27.44 245.37 51.1 245.37 63.9 244.84 63.9 244.06 60.93 243.39 58.49"/>
    <polygon class="fill-current" points="229.97 108.55 220.53 143.8 220.53 168.56 241.49 168.56 242.48 164.88 242.48 159.81 229.97 159.81 229.97 108.55"/>
    <polygon class="fill-current" points="215.26 168.56 215.26 163.44 213.89 168.56 215.26 168.56"/>
    <polygon class="fill-current" points="235.13 89.29 234.49 91.71 235.13 91.71 235.13 89.29"/>
    <path class="fill-current" d="M276.72,37.1l2.59-9.66h-21.6v9.7h8.93V74.73l-2.59,9.66v17h9.44V49.15l1.76-6.58-1.13,4.23h8.29V37.1Zm-.64,0h.63l-.63,2.35Z"/>
    <polygon class="fill-current" points="239.89 178.22 239.89 174.54 238.91 178.22 239.89 178.22"/>
    <polygon class="fill-current" points="279.08 131.28 279.08 113.94 267.54 113.94 261.94 143.33 261.51 146.73 261.33 146.73 260.89 143.33 255.64 115.75 258.23 106.1 257.88 104.28 246.34 104.28 246.34 150.48 243.75 160.13 243.75 178.22 252.5 178.22 252.5 135.1 253.02 135.1 253.37 137.81 259.4 178.22 263.43 178.22 269.46 137.81 269.81 135.1 270.34 135.1 270.34 163.91 279.08 131.28"/>
  </g>
  <g class="blend-screen text-glitch-red">
    <polygon class="fill-current" points="269.93 170.56 278.67 170.56 278.67 132.82 269.93 165.45 269.93 170.56"/>
    <polygon class="fill-current" points="14.59 84.05 15.74 84.05 10.56 103.37 18.86 103.37 18.86 72.41 24.03 53.09 24.03 19.78 14.59 19.78 14.59 84.05"/>
    <polygon class="fill-current" points="31.04 19.78 31.04 26.94 32.96 19.78 31.04 19.78"/>
    <polygon class="fill-current" points="34.61 60.26 35.13 60.26 35.48 62.97 40.31 95.33 55.38 39.1 49.65 39.1 44.05 68.48 43.62 71.89 43.44 71.89 43 68.48 37.41 39.1 27.78 39.1 25.86 46.26 25.86 103.37 34.61 103.37 34.61 60.26"/>
    <polygon class="fill-current" points="9.41 179.5 17.76 179.5 18.86 175.41 18.86 115.23 9.41 115.23 9.41 179.5"/>
    <polygon class="fill-current" points="34.26 115.23 25.86 115.23 25.86 149.28 34.62 116.57 34.26 115.23"/>
    <polygon class="fill-current" points="44.1 93.71 48.13 93.71 54.16 53.31 54.51 50.6 55.03 50.6 55.03 93.71 63.78 93.71 63.78 29.44 57.97 29.44 42.9 85.67 44.1 93.71"/>
    <polygon class="fill-current" points="21.45 169.84 21.45 165.75 20.35 169.84 21.45 169.84"/>
    <polygon class="fill-current" points="47.34 142.03 46.82 142.03 46.03 139.06 37.21 106.91 28.45 139.62 28.45 169.84 37.11 169.84 37.11 133.37 37.63 133.37 38.42 136.35 47.6 169.84 47.95 169.84 56 139.81 56 105.57 47.34 105.57 47.34 142.03"/>
    <path class="fill-current" d="M84.1,34.92l1.3-4.83a20.27,20.27,0,0,0-5.16-.65H70.8V84.57l9.44-35.25V39.05a11.73,11.73,0,0,1,2.68.28l-1.29,4.83a4.83,4.83,0,0,1,3.09,2c1,1.57,1.31,4.11,1.31,7.69s-.26,6-1.31,7.35-2.88,2-5.77,2V54.15L69.5,89.4v9.14H79V72.84a16.29,16.29,0,0,0,11.37-4.2c3.15-3,5.24-7.79,5.24-15.14s-2.09-12.24-5.24-15.21A14.08,14.08,0,0,0,84.1,34.92Z"/>
    <polygon class="fill-current" points="54.7 174.67 54.7 144.64 46.66 174.67 54.7 174.67"/>
    <polygon class="fill-current" points="123.55 93.71 123.55 84.97 111.04 84.97 111.04 37.39 109.75 42.22 109.75 34.27 100.3 34.27 100.3 77.47 101.59 72.64 101.59 93.71 123.55 93.71"/>
    <polygon class="fill-current" points="136.85 39.14 138.17 39.14 140.77 29.44 127.41 29.44 127.41 79.32 136.85 44.07 136.85 39.14"/>
    <path class="fill-current" d="M82.83,142.67H73.09v8h3.76v11.64a6.1,6.1,0,0,1-.35,2.35A2.77,2.77,0,0,1,73.7,167a2.54,2.54,0,0,1-1.84-.7,5.55,5.55,0,0,1-1.31-4V123.6a6.77,6.77,0,0,1,.35-2.36,2.92,2.92,0,0,1,2.8-2.36,2.72,2.72,0,0,1,1.92.7,5.8,5.8,0,0,1,1.23,4v9.88h8.44l1-3.72V123.6a17.36,17.36,0,0,0-1.58-6.91,12.23,12.23,0,0,0-3.76-4.8,11.72,11.72,0,0,0-7.25-2.19,11.1,11.1,0,0,0-11,7,17.36,17.36,0,0,0-1.57,6.91v37.87a17.55,17.55,0,0,0,1,7,11.68,11.68,0,0,0,3.33,4.72,9.6,9.6,0,0,0,6.73,2.18,8.62,8.62,0,0,0,1.92-.22l1.29-4.83a9.79,9.79,0,0,0,5.43-3.54L82,169.84h5.59v-32H84.13Z"/>
    <polygon class="fill-current" points="87.58 128.65 87.58 124.93 86.59 128.65 87.58 128.65"/>
    <polygon class="fill-current" points="112.55 134.77 111.06 134.77 111.06 140.32 112.55 134.77"/>
    <polygon class="fill-current" points="136.88 43.97 147.71 43.97 147.71 34.27 139.48 34.27 136.88 43.97"/>
    <polygon class="fill-current" points="147.71 88.84 135.56 88.84 135.56 71.17 144.31 71.17 144.31 60.85 135.56 60.85 135.56 48.9 126.11 84.15 126.11 98.54 147.71 98.54 147.71 88.84"/>
    <polygon class="fill-current" points="138.85 139.6 111.25 139.6 109.77 145.15 109.77 146.9 136.9 146.9 138.19 142.06 165.79 142.06 167.75 134.77 140.15 134.77 138.85 139.6"/>
    <polygon class="fill-current" points="193.48 79.22 193.48 38.73 189.6 53.21 189.6 29.44 178.05 29.44 172.46 58.82 172.02 62.23 171.85 62.23 171.41 58.82 166.88 35.02 165.58 39.85 164.52 34.27 152.98 34.27 152.98 86.89 154.27 82.06 154.27 93.71 163.02 93.71 163.02 50.6 163.54 50.6 163.89 53.31 169.92 93.71 173.95 93.71 179.98 53.31 180.33 50.6 180.85 50.6 180.85 85.86 184.74 71.37 184.74 79.22 193.48 79.22"/>
    <path class="fill-current" d="M206.86,91.79H194.55v46L192,147.4v18.33h21.6V156H201.4V138.36h8.75V128H201.4V112.17l.27-1h11.89v-9.71h-9.28ZM204,102.51v-1h.27Z"/>
    <polygon class="fill-current" points="169.68 127.58 173.27 127.58 173.27 120.28 171.63 120.28 169.68 127.58"/>
    <polygon class="fill-current" points="227.36 14.95 227.36 15.3 227.45 14.95 227.36 14.95"/>
    <polygon class="fill-current" points="207.64 88.88 219.51 88.88 219.51 79.18 210.24 79.18 212.83 69.52 209.94 69.52 209.94 51.85 217.56 51.85 218.69 47.67 218.69 41.53 209.94 41.53 209.94 24.65 222.1 24.65 222.1 14.95 200.5 14.95 200.5 79.22 210.23 79.22 207.64 88.88"/>
    <polygon class="fill-current" points="233.43 52.41 233.96 52.41 234.74 55.39 239.53 72.87 242.92 60.24 242.35 58.1 233.17 24.61 224.86 24.61 224.77 24.96 224.77 88.88 233.43 88.88 233.43 52.41"/>
    <polygon class="fill-current" points="252.32 24.61 243.66 24.61 243.66 57.47 252.32 25.15 252.32 24.61"/>
    <polygon class="fill-current" points="218.82 150.17 228.27 114.92 228.27 101.45 218.82 101.45 218.82 150.17"/>
    <polygon class="fill-current" points="216.1 57.33 214.98 61.51 216.1 61.51 216.1 57.33"/>
    <polygon class="fill-current" points="242.37 65.9 241.84 65.9 241.62 65.07 238.24 77.7 242.63 93.71 251.03 93.71 251.03 29.98 242.37 62.3 242.37 65.9"/>
    <polygon class="fill-current" points="263.64 85.92 261.05 95.58 261.05 103.37 270.49 103.37 270.49 60.34 273.08 50.69 273.08 39.14 276.17 39.14 278.77 29.44 254.71 29.44 254.71 39.14 263.64 39.14 263.64 85.92"/>
    <polygon class="fill-current" points="226.97 119.75 217.53 155 217.53 170.56 239.48 170.56 239.48 161.81 226.97 161.81 226.97 119.75"/>
    <polygon class="fill-current" points="276.18 39.1 273.58 48.8 279.41 48.8 279.41 39.1 276.18 39.1"/>
    <polygon class="fill-current" points="276.08 142.47 276.08 115.94 264.54 115.94 258.94 145.33 258.51 148.73 258.33 148.73 257.89 145.33 253.67 123.13 251.14 132.55 252.09 129.03 252.09 127.44 252.51 127.44 256.25 113.47 254.88 106.28 243.34 106.28 243.34 161.67 240.75 171.33 240.75 180.22 249.5 180.22 249.5 138.69 249.92 137.1 250.02 137.1 250.37 139.81 256.4 180.22 260.43 180.22 266.46 139.81 266.81 137.1 267.34 137.1 267.34 175.11 276.08 142.47"/></g></g></g></g></svg>