<svg xmlns="http://www.w3.org/2000/svg" viewBox="0 0 300 200">
  <g class="blend-screen text-glitch-blue">
    <polygon class="fill-current" points="278.2 134.57 278.2 132.43 266.66 132.43 261.06 161.81 260.62 165.22 260.45 165.22 260.01 161.81 254.41 132.43 251.18 132.43 242.87 163.43 242.87 196.71 251.62 196.71 251.62 153.59 252.14 153.59 252.49 156.3 258.52 196.71 261.55 196.71 263.8 188.32 268.58 156.3 268.93 153.59 269.46 153.59 269.46 167.21 268.02 172.56 269.02 172.56 270.27 164.17 270.21 164.4 275.93 143.06 275.93 172.56 284.67 172.56 284.67 110.42 278.2 134.57"/>
    <polygon class="fill-current" points="21.89 81.22 31.33 81.22 31.33 25.87 27.45 40.36 27.45 31.44 18 31.44 18 75.59 21.89 61.11 21.89 81.22"/>
    <polygon class="fill-current" points="31.33 93.08 21.88 93.08 21.88 157.36 23.7 157.36 31.33 128.87 31.33 93.08"/>
    <polygon class="fill-current" points="47.08 70.09 47.08 38.12 47.6 38.12 47.95 40.82 50.45 57.52 54.63 41.91 49.88 16.95 38.33 16.95 38.33 81.22 44.09 81.22 47.08 70.09"/>
    <polygon class="fill-current" points="38.33 102.74 40.92 93.08 38.33 93.08 38.33 102.74"/>
    <polygon class="fill-current" points="49.67 71.56 49.67 60.43 46.68 71.56 49.67 71.56"/>
    <polygon class="fill-current" points="83.27 7.29 83.27 38.03 91.5 7.29 83.27 7.29"/>
    <polygon class="fill-current" points="33.92 147.7 33.92 119.21 26.28 147.7 33.92 147.7"/>
    <polygon class="fill-current" points="56.94 136.28 68.47 93.27 68.47 83.42 59.81 83.42 59.81 119.88 59.29 119.88 58.5 116.92 49.31 83.42 43.51 83.42 40.92 93.08 40.92 147.7 49.58 147.7 49.58 111.22 50.1 111.22 50.89 114.2 56.94 136.28"/>
    <polygon class="fill-current" points="56.57 71.56 60.6 71.56 66.63 31.16 66.98 28.46 67.5 28.46 67.5 71.56 74.28 71.56 76.25 64.22 76.25 7.29 64.7 7.29 59.11 36.67 58.67 40.08 58.5 40.08 58.06 36.67 57.22 32.25 53.03 47.87 56.57 71.56"/>
    <polygon class="fill-current" points="69.78 88.37 67.81 95.71 69.78 95.71 69.78 88.37"/>
    <polygon class="fill-current" points="53.6 171.84 62 171.84 62 117.42 50.47 160.43 53.6 171.84"/>
    <path class="fill-current" d="M88.25,109.06A11.77,11.77,0,0,0,81,106.87a11.1,11.1,0,0,0-11,7,17.36,17.36,0,0,0-1.57,6.91v37.87a17.55,17.55,0,0,0,1,7,11.75,11.75,0,0,0,3.32,4.72,7.89,7.89,0,0,0,2.27,1.4L78,160.87a9.07,9.07,0,0,1-.11-1.44V120.77a6.77,6.77,0,0,1,.35-2.36,2.92,2.92,0,0,1,2.8-2.36,2.68,2.68,0,0,1,1.92.7,5.8,5.8,0,0,1,1.23,4v9.88h1.91l-2.46,9.19H80.38v7.95h1.08l2-7.48H91v-9.88a17.54,17.54,0,0,0-1.58-6.91,13.6,13.6,0,0,0-1-1.77L91,112.1A11.53,11.53,0,0,0,88.25,109.06Z"/>
    <path class="fill-current" d="M86.24,31.44H85L76.8,62.18V95.71h9.44V70a16.27,16.27,0,0,0,11.37-4.2c3.15-3,5.25-7.79,5.25-15.14s-2.1-12.24-5.25-15.21S90.36,31.44,86.24,31.44ZM92,58.37c-1,1.48-2.88,2-5.77,2V41.05c2.89,0,4.73.7,5.77,2.28s1.32,4.11,1.32,7.69S93.06,57,92,58.37Z"/>
    <polygon class="fill-current" points="130.82 41.1 130.82 66.58 137.65 41.1 130.82 41.1"/>
    <path class="fill-current" d="M78.87,157.45h2.68v11.64a6.1,6.1,0,0,1-.35,2.35,2.77,2.77,0,0,1-2.8,2.37,2.52,2.52,0,0,1-1.83-.7,4.81,4.81,0,0,1-1.2-2.58l-2.92,10.89a11.63,11.63,0,0,0,4.47.78,9.38,9.38,0,0,0,7.34-3.76l1.14,3.06H91v-32H81Z"/>
    <polygon class="fill-current" points="122.77 96.63 114.45 96.63 114.45 41.1 110.05 41.1 112.63 31.44 107.59 31.44 107.59 50.25 105.01 59.91 105.01 105.37 120.42 105.37 122.77 96.63"/>
    <polygon class="fill-current" points="129.55 86.97 125.36 86.97 123.01 95.71 129.55 95.71 129.55 86.97"/>
    <polygon class="fill-current" points="139.61 136.77 117.06 136.77 117.06 144.06 137.66 144.06 139.61 136.77"/>
    <polygon class="fill-current" points="133.41 95.71 150.61 95.71 148.03 105.37 152.42 105.37 152.42 95.67 150.63 95.67 153.21 86.01 142.85 86.01 142.85 68.34 151.6 68.34 151.6 58.02 142.85 58.02 142.85 41.14 155.01 41.14 155.01 31.44 140.23 31.44 133.41 56.92 133.41 95.71"/>
    <polygon class="fill-current" points="135.07 153.72 162.67 153.72 164.62 146.43 137.02 146.43 135.07 153.72"/>
    <polygon class="fill-current" points="192.85 41.1 181.47 41.1 175.87 70.48 175.44 73.89 175.26 73.89 174.82 70.48 169.23 41.1 165.25 41.1 167.83 31.44 160.27 31.44 160.27 59.66 157.68 69.32 157.68 105.37 166.43 105.37 166.43 62.26 166.95 62.26 167.3 64.97 173.34 105.37 175.63 105.37 179.54 90.76 183.39 64.97 183.74 62.26 184.26 62.26 184.26 73.13 192.85 41.1"/>
    <polygon class="fill-current" points="179.95 95.71 182.13 81.1 178.21 95.71 179.95 95.71"/>
    <path class="fill-current" d="M208.4,86.05h18.4v-9.7H214.65V62.74l1.09-4.06h7.65V48.36H218.5L215.91,58h-3.85V41.14h8.38L223,31.48h3.78v-9.7h-1.18L223,31.44H202.62V95.71h3.19Zm4.75-17.71.73-2.74-1.82,6.8V68.34Z"/>
    <polygon class="fill-current" points="165.26 144.06 175.39 144.06 175.39 136.77 167.21 136.77 165.26 144.06"/>
    <polygon class="fill-current" points="186.85 63.47 186.85 95.71 195.6 95.71 195.6 31.44 195.43 31.44 186.85 63.47"/>
    <polygon class="fill-current" points="240.72 68.43 240.72 49.58 241.25 49.58 242.04 52.56 243.52 57.98 246.92 45.32 240.46 21.78 232.06 21.78 232.06 86.05 236 86.05 240.72 68.43"/>
    <polygon class="fill-current" points="250.96 21.78 250.96 30.24 253.22 21.78 250.96 21.78"/>
    <polygon class="fill-current" points="202.44 108.28 196.67 108.28 196.67 129.84 199.26 120.18 199.26 162.9 215.41 162.9 212.82 172.56 218.26 172.56 218.26 162.85 215.42 162.85 218.01 153.19 208.7 153.19 208.7 135.53 217.44 135.53 217.44 125.21 208.7 125.21 208.7 108.33 220.85 108.33 220.85 98.62 205.03 98.62 202.44 108.28"/>
    <polygon class="fill-current" points="226.12 122.95 232.63 98.62 226.12 98.62 226.12 122.95"/>
    <polygon class="fill-current" points="238.13 95.71 238.13 78.09 233.41 95.71 238.13 95.71"/>
    <polygon class="fill-current" points="269.64 63.53 278.23 31.44 260.71 31.44 260.71 41.14 269.64 41.14 269.64 63.53"/>
    <polygon class="fill-current" points="232.97 108.28 230.04 108.28 223.53 132.61 223.53 172.56 240.42 172.56 242.76 163.81 232.97 163.81 232.97 108.28"/>
    <polygon class="fill-current" points="249.34 139.28 257.64 108.28 249.34 108.28 249.34 139.28"/>
    <polygon class="fill-current" points="240.94 67.64 248.63 95.71 257.03 95.71 257.03 31.44 250.63 31.44 248.37 39.9 248.37 67.9 247.84 67.9 247.06 64.93 244.33 54.98 240.94 67.64"/>
    <polygon class="fill-current" points="233.95 196.71 239.01 196.71 239.01 187.96 236.29 187.96 233.95 196.71"/>
    <polygon class="fill-current" points="263.17 87.68 263.17 119.86 272.61 119.86 272.61 65.29 281.53 65.29 281.53 55.59 271.76 55.59 263.17 87.68"/>
  </g>
  <g class="blend-screen text-glitch-green">
    <polygon class="fill-current" points="275.2 145.77 275.2 128.43 263.66 128.43 258.06 157.81 257.62 161.22 257.45 161.22 257.01 157.81 251.76 130.24 242.41 165.14 242.48 164.88 242.48 159.81 229.97 159.81 229.97 108.55 220.53 143.8 220.53 168.56 241.49 168.56 239.87 174.62 239.87 192.71 248.62 192.71 248.62 149.59 249.14 149.59 249.49 152.3 255.52 192.71 259.55 192.71 265.58 152.3 265.93 149.59 266.46 149.59 266.46 178.4 272.93 154.25 272.93 168.56 281.67 168.56 281.67 121.62 275.2 145.77"/>
    <polygon class="fill-current" points="18.89 77.22 28.33 77.22 28.33 37.06 24.45 51.55 24.45 27.44 15 27.44 15 86.79 18.89 72.3 18.89 77.22"/>
    <polygon class="fill-current" points="44.08 34.12 44.6 34.12 44.95 36.82 48.9 63.28 62.39 12.95 59.12 12.95 53.52 42.33 53.09 45.74 52.91 45.74 52.47 42.33 46.88 12.95 35.33 12.95 35.33 77.22 44.08 77.22 44.08 34.12"/>
    <polygon class="fill-current" points="28.33 89.08 18.88 89.08 18.88 153.36 24.77 153.36 27.36 143.7 30.92 143.7 30.92 130.41 28.33 140.07 28.33 89.08"/>
    <polygon class="fill-current" points="35.33 89.08 35.33 113.93 41.99 89.08 35.33 89.08"/>
    <polygon class="fill-current" points="53.57 67.56 57.6 67.56 63.63 27.16 63.98 24.46 64.5 24.46 64.5 67.56 73.25 67.56 73.25 3.29 64.98 3.29 51.49 53.62 53.57 67.56"/>
    <path class="fill-current" d="M89.71,12.91H90l2.53-9.44a22,22,0,0,0-2.82-.19H80.27V49.23L89.71,14Z"/>
    <polygon class="fill-current" points="65.47 104.46 65.47 79.42 56.81 79.42 56.81 115.88 56.29 115.88 55.5 112.92 46.31 79.42 44.58 79.42 37.92 104.27 37.92 143.7 46.58 143.7 46.58 107.22 47.1 107.22 47.89 110.2 56 139.79 65.47 104.46"/>
    <path class="fill-current" d="M86.06,27.62l-2.53,9.44c2.72,0,4.47.75,5.48,2.27s1.32,4.11,1.32,7.69-.27,6-1.32,7.35-2.88,2-5.77,2V38.13L73.8,73.38V91.71h9.44V66a16.27,16.27,0,0,0,11.37-4.2c3.15-3,5.25-7.79,5.25-15.14s-2.1-12.24-5.25-15.21A14.91,14.91,0,0,0,86.06,27.62Z"/>
    <polygon class="fill-current" points="50.6 167.84 59 167.84 59 128.61 49.53 163.94 50.6 167.84"/>
    <path class="fill-current" d="M85.25,105.06A11.77,11.77,0,0,0,78,102.87a11.1,11.1,0,0,0-11,7,17.36,17.36,0,0,0-1.57,6.91v37.87a17.55,17.55,0,0,0,1,7,11.75,11.75,0,0,0,3.32,4.72,9.3,9.3,0,0,0,6.13,2.16l2.25-8.39-.16,0a2.56,2.56,0,0,1-1.84-.7,5.59,5.59,0,0,1-1.31-4V116.77a6.77,6.77,0,0,1,.35-2.36,2.92,2.92,0,0,1,2.8-2.36,2.68,2.68,0,0,1,1.92.7,5.8,5.8,0,0,1,1.23,4v9.88h6l3.25-12.12A16.55,16.55,0,0,0,89,109.86,12.32,12.32,0,0,0,85.25,105.06Z"/>
    <polygon class="fill-current" points="123.84 92.63 111.45 92.63 111.45 37.1 111.12 37.1 113.71 27.44 104.59 27.44 104.59 61.45 102.01 71.11 102.01 101.37 121.5 101.37 123.84 92.63"/>
    <polygon class="fill-current" points="127.82 37.1 127.82 77.78 138.72 37.1 127.82 37.1"/>
    <path class="fill-current" d="M84.66,135.84H77.38v7.95h3.76V149l-2.59,9.66v6.45a6.1,6.1,0,0,1-.35,2.35,2.75,2.75,0,0,1-2.64,2.35l-2.24,8.39.6,0a9.38,9.38,0,0,0,7.34-3.76l1.14,3.06H88v-32H82.07l2.46-9.19H88v-9.88a20.23,20.23,0,0,0-.22-2.24Z"/>
    <polygon class="fill-current" points="130.41 91.71 151.69 91.71 152.01 90.51 152.01 82.01 139.85 82.01 139.85 64.34 148.6 64.34 148.6 54.02 139.85 54.02 139.85 37.14 152.01 37.14 152.01 27.44 141.31 27.44 130.41 68.12 130.41 91.71"/>
    <polygon class="fill-current" points="140.68 132.77 114.06 132.77 114.06 140.06 138.73 140.06 140.68 132.77"/>
    <polygon class="fill-current" points="126.55 82.97 126.43 82.97 124.08 91.71 126.55 91.71 126.55 82.97"/>
    <polygon class="fill-current" points="149.42 100.17 149.1 101.37 149.42 101.37 149.42 100.17"/>
    <polygon class="fill-current" points="190.01 51.68 190.01 37.1 178.47 37.1 172.87 66.48 172.44 69.89 172.26 69.89 171.82 66.48 166.26 37.3 168.85 27.64 168.81 27.44 157.27 27.44 157.27 70.86 154.68 80.52 154.68 101.37 163.43 101.37 163.43 58.26 163.95 58.26 164.3 60.97 170.34 101.37 174.36 101.37 180.39 60.97 180.74 58.26 181.26 58.26 181.26 84.32 190.01 51.68"/>
    <polygon class="fill-current" points="136.14 149.72 163.74 149.72 165.69 142.43 138.09 142.43 136.14 149.72"/>
    <polygon class="fill-current" points="183.85 91.71 192.6 91.71 192.6 42.02 183.85 74.66 183.85 91.71"/>
    <polygon class="fill-current" points="209.49 82.01 209.06 82.01 209.06 64.34 214.22 64.34 216.81 54.68 220.39 54.68 220.39 44.36 219.57 44.36 216.98 54.02 209.06 54.02 209.06 37.14 221.21 37.14 221.21 27.44 199.62 27.44 199.62 91.71 206.88 91.71 209.49 82.01"/>
    <polygon class="fill-current" points="166.33 140.06 172.39 140.06 172.39 132.77 168.28 132.77 166.33 140.06"/>
    <polygon class="fill-current" points="209.47 82.05 223.8 82.05 223.8 72.35 212.07 72.35 209.47 82.05"/>
    <polygon class="fill-current" points="237.72 79.63 237.72 45.58 238.25 45.58 239.04 48.56 242.58 61.49 245.97 48.83 237.46 17.78 229.06 17.78 229.06 82.05 237.07 82.05 237.72 79.63"/>
    <polygon class="fill-current" points="203.52 104.28 193.67 104.28 193.67 141.04 196.26 131.38 196.26 158.9 216.48 158.9 217.85 153.78 217.85 149.19 205.7 149.19 205.7 131.53 214.44 131.53 214.44 121.21 205.7 121.21 205.7 104.33 217.85 104.33 217.85 94.62 206.1 94.62 203.52 104.28"/>
    <polygon class="fill-current" points="223.12 134.14 232.56 98.89 232.56 94.62 223.12 94.62 223.12 134.14"/>
    <polygon class="fill-current" points="245.37 51.1 245.37 63.9 244.84 63.9 244.06 60.93 243.39 58.49 239.99 71.15 245.63 91.71 254.03 91.71 254.03 27.44 251.71 27.44 254.29 17.78 247.96 17.78 247.96 41.44 245.37 51.1"/>
    <polygon class="fill-current" points="266.64 74.73 272.62 52.41 270.24 61.29 278.53 61.29 278.53 51.59 272.83 51.59 276.08 39.49 276.08 37.14 276.71 37.14 279.31 27.44 257.71 27.44 257.71 37.14 266.64 37.14 266.64 74.73"/>
    <polygon class="fill-current" points="246.34 150.48 258.23 106.1 257.88 104.28 246.34 104.28 246.34 150.48"/>
    <polygon class="fill-current" points="215.26 168.56 215.26 163.44 213.89 168.56 215.26 168.56"/>
    <polygon class="fill-current" points="235.13 89.29 234.49 91.71 235.13 91.71 235.13 89.29"/>
    <polygon class="fill-current" points="260.17 115.86 269.61 115.86 269.61 63.64 260.17 98.88 260.17 115.86"/>
    <polygon class="fill-current" points="236.01 192.71 236.01 189.03 235.02 192.71 236.01 192.71"/>
  </g>
  <g class="blend-screen text-glitch-red">
    <polygon class="fill-current" points="21.45 29.44 12 29.44 12 93.71 13.15 93.71 17.03 79.22 25.33 79.22 25.33 48.26 21.45 62.75 21.45 29.44"/>
    <polygon class="fill-current" points="28.45 36.6 30.37 29.44 28.45 29.44 28.45 36.6"/>
    <polygon class="fill-current" points="41.08 36.12 41.6 36.12 41.95 38.82 46.78 71.19 61.85 14.95 56.12 14.95 50.52 44.33 50.09 47.74 49.91 47.74 49.47 44.33 43.88 14.95 34.25 14.95 32.33 22.11 32.33 79.22 41.08 79.22 41.08 36.12"/>
    <polygon class="fill-current" points="15.88 155.36 24.23 155.36 25.33 151.26 25.33 91.08 15.88 91.08 15.88 155.36"/>
    <polygon class="fill-current" points="40.73 91.08 32.33 91.08 32.33 125.13 41.09 92.42 40.73 91.08"/>
    <polygon class="fill-current" points="50.57 69.56 54.6 69.56 60.63 29.16 60.98 26.46 61.5 26.46 61.5 69.56 70.25 69.56 70.25 5.29 64.44 5.29 49.37 61.53 50.57 69.56"/>
    <path class="fill-current" d="M86.71,14.91a11.77,11.77,0,0,1,2.68.27l2.48-9.24a20.27,20.27,0,0,0-5.16-.65H77.27V60.42l9.44-35.25Z"/>
    <polygon class="fill-current" points="27.92 145.7 27.92 141.61 26.82 145.7 27.92 145.7"/>
    <polygon class="fill-current" points="54.42 145.7 62.47 115.66 62.47 81.42 53.81 81.42 53.81 117.88 53.29 117.88 52.5 114.92 43.68 82.76 34.92 115.47 34.92 145.7 43.58 145.7 43.58 109.22 44.1 109.22 44.89 112.2 54.07 145.7 54.42 145.7"/>
    <path class="fill-current" d="M85.4,30.09l-2.48,9.24a4.78,4.78,0,0,1,3.09,2c1,1.57,1.32,4.11,1.32,7.69s-.27,6-1.32,7.35-2.88,2-5.77,2V49.32L70.8,84.57v9.14h9.44V68a16.27,16.27,0,0,0,11.37-4.2c3.15-3,5.25-7.79,5.25-15.14s-2.1-12.24-5.25-15.21A14.1,14.1,0,0,0,85.4,30.09Z"/>
    <polygon class="fill-current" points="56 169.84 56 139.81 47.95 169.84 56 169.84"/>
    <path class="fill-current" d="M82.25,107.06A11.77,11.77,0,0,0,75,104.87a11.1,11.1,0,0,0-11,7,17.36,17.36,0,0,0-1.57,6.91v37.87a17.55,17.55,0,0,0,1.05,7,11.75,11.75,0,0,0,3.32,4.72,9.6,9.6,0,0,0,6.73,2.18,8.56,8.56,0,0,0,1.92-.22L72.83,180a9.84,9.84,0,0,0,5.43-3.54l1.14,3.06H85v-32H81.54L84,138.31h1v-3.72l-.87,3.25H74.38v7.95h3.76v11.64a6.1,6.1,0,0,1-.35,2.35,2.77,2.77,0,0,1-2.8,2.37,2.56,2.56,0,0,1-1.84-.7,5.59,5.59,0,0,1-1.31-4V118.77a6.77,6.77,0,0,1,.35-2.36,2.92,2.92,0,0,1,2.8-2.36,2.68,2.68,0,0,1,1.92.7,5.8,5.8,0,0,1,1.23,4v9.88h8.45l1-3.72v-6.16A17.36,17.36,0,0,0,86,111.86,12.32,12.32,0,0,0,82.25,107.06Z"/>
    <polygon class="fill-current" points="120.96 94.63 108.45 94.63 108.45 47.05 111.04 37.39 111.04 29.44 101.59 29.44 101.59 72.64 99.01 82.3 99.01 103.37 120.96 103.37 120.96 94.63"/>
    <polygon class="fill-current" points="134.26 48.8 135.58 48.8 138.17 39.14 149.01 39.14 149.01 29.44 140.77 29.44 138.18 39.1 124.82 39.1 124.82 88.98 134.26 53.73 134.26 48.8"/>
    <polygon class="fill-current" points="108.47 149.98 109.96 144.43 108.47 144.43 108.47 149.98"/>
    <polygon class="fill-current" points="127.41 79.32 127.41 93.71 149.01 93.71 149.01 84.01 136.85 84.01 136.85 66.34 145.6 66.34 145.6 56.02 136.85 56.02 136.85 44.07 127.41 79.32"/>
    <polygon class="fill-current" points="140.15 134.77 112.55 134.77 111.06 140.32 111.06 142.06 138.19 142.06 140.15 134.77"/>
    <polygon class="fill-current" points="187.01 62.87 187.01 39.1 175.47 39.1 169.87 68.48 169.44 71.89 169.26 71.89 168.82 68.48 164.29 44.68 166.88 35.02 165.81 29.44 154.27 29.44 154.27 82.06 151.68 91.72 151.68 103.37 160.43 103.37 160.43 60.26 160.95 60.26 161.3 62.97 167.34 103.37 171.36 103.37 177.39 62.97 177.74 60.26 178.26 60.26 178.26 95.52 187.01 62.87"/>
    <polygon class="fill-current" points="135.6 151.72 163.21 151.72 165.16 144.43 137.56 144.43 135.6 151.72"/>
    <polygon class="fill-current" points="180.85 93.71 189.6 93.71 189.6 53.21 180.85 85.86 180.85 93.71"/>
    <polygon class="fill-current" points="208.95 84.01 206.06 84.01 206.06 66.34 213.68 66.34 214.8 62.16 214.8 56.02 206.06 56.02 206.06 39.14 218.21 39.14 218.21 29.44 196.62 29.44 196.62 93.71 206.35 93.71 208.95 84.01"/>
    <polygon class="fill-current" points="165.79 142.06 169.39 142.06 169.39 134.77 167.75 134.77 165.79 142.06"/>
    <polygon class="fill-current" points="223.48 29.44 223.48 29.79 223.57 29.44 223.48 29.44"/>
    <polygon class="fill-current" points="208.94 84.05 220.8 84.05 220.8 74.35 211.54 74.35 208.94 84.05"/>
    <polygon class="fill-current" points="234.72 47.58 235.25 47.58 236.04 50.56 240.83 68.04 242.56 61.59 242.37 62.3 242.37 65.9 241.84 65.9 241.62 65.07 238.24 77.7 242.63 93.71 251.03 93.71 251.03 29.98 244.21 55.41 243.65 53.27 234.46 19.78 226.16 19.78 226.06 20.13 226.06 84.05 234.72 84.05 234.72 47.58"/>
    <polygon class="fill-current" points="253.61 19.78 244.96 19.78 244.96 52.64 253.61 20.32 253.61 19.78"/>
    <path class="fill-current" d="M202.7,133.53h8.74V123.21H202.7V107.34l-.33,1.22.61-2.28H190.67v45.95l2.59-9.66V160.9h21.59v-9.71H202.7ZM200.38,116l-.27,1v-1Z"/>
    <polygon class="fill-current" points="202.97 106.33 214.85 106.33 214.85 96.62 205.57 96.62 202.97 106.33"/>
    <polygon class="fill-current" points="220.12 145.34 229.56 110.09 229.56 96.62 220.12 96.62 220.12 145.34"/>
    <polygon class="fill-current" points="216.27 56.68 217.39 56.68 217.39 52.5 216.27 56.68"/>
    <polygon class="fill-current" points="263.64 85.92 269.7 63.29 275.53 63.29 275.53 53.59 272.3 53.59 271.85 55.28 273.08 50.69 273.08 39.14 276.17 39.14 278.77 29.44 254.71 29.44 254.71 39.14 263.64 39.14 263.64 85.92"/>
    <polygon class="fill-current" points="239.48 161.81 226.97 161.81 226.97 119.75 217.53 155 217.53 170.56 239.48 170.56 239.48 161.81"/>
    <polygon class="fill-current" points="243.34 161.67 252.09 129.03 252.09 127.44 252.51 127.44 256.25 113.47 254.88 106.28 243.34 106.28 243.34 161.67"/>
    <polygon class="fill-current" points="257.17 117.86 266.61 117.86 266.61 74.83 257.17 110.07 257.17 117.86"/>
    <polygon class="fill-current" points="272.2 130.43 260.66 130.43 255.06 159.81 254.62 163.22 254.45 163.22 254.01 159.81 249.78 137.62 246.04 151.59 246.14 151.59 246.49 154.3 252.52 194.71 256.55 194.71 262.58 154.3 262.93 151.59 263.46 151.59 263.46 189.6 269.93 165.45 269.93 170.56 278.67 170.56 278.67 132.82 272.2 156.96 272.2 130.43"/>
    <polygon class="fill-current" points="236.87 194.71 245.62 194.71 245.62 153.17 236.87 185.82 236.87 194.71"/>
  </g>
</svg>