<svg xmlns="http://www.w3.org/2000/svg" viewBox="0 0 300 200">
  <g class="text-white">
    <rect class="fill-current text-white" x="15" y="29.44" width="9.44" height="64.27"/>
    <polygon class="fill-current text-white" points="40.2 50.6 40.72 50.6 41.07 53.31 47.1 93.71 51.13 93.71 57.16 53.31 57.51 50.6 58.03 50.6 58.03 93.71 66.78 93.71 66.78 29.44 55.23 29.44 49.64 58.82 49.2 62.23 49.03 62.23 48.59 58.82 42.99 29.44 31.45 29.44 31.45 93.71 40.2 93.71 40.2 50.6"/>
    <path class="fill-current text-white" d="M83.24,29.44H73.8V93.71h9.44V68a16.27,16.27,0,0,0,11.37-4.2c3.15-3,5.25-7.79,5.25-15.14s-2.1-12.24-5.25-15.21S87.36,29.44,83.24,29.44ZM89,56.37c-1,1.48-2.88,2-5.77,2V39.05c2.89,0,4.73.7,5.77,2.28s1.32,4.11,1.32,7.69S90.06,55,89,56.37Z"/>
    <polygon class="fill-current text-white" points="126.55 84.97 114.04 84.97 114.04 29.44 104.59 29.44 104.59 93.71 126.55 93.71 126.55 84.97"/>
    <polygon class="fill-current text-white" points="152.01 84.01 139.85 84.01 139.85 66.34 148.6 66.34 148.6 56.02 139.85 56.02 139.85 39.14 152.01 39.14 152.01 29.44 130.41 29.44 130.41 93.71 152.01 93.71 152.01 84.01"/>
    <polygon class="fill-current text-white" points="175.46 58.82 175.02 62.23 174.85 62.23 174.41 58.82 168.81 29.44 157.27 29.44 157.27 93.71 166.02 93.71 166.02 50.6 166.54 50.6 166.89 53.31 172.92 93.71 176.95 93.71 182.98 53.31 183.33 50.6 183.85 50.6 183.85 93.71 192.6 93.71 192.6 29.44 181.05 29.44 175.46 58.82"/>
    <polygon class="fill-current text-white" points="221.21 84.01 209.06 84.01 209.06 66.34 217.8 66.34 217.8 56.02 209.06 56.02 209.06 39.14 221.21 39.14 221.21 29.44 199.62 29.44 199.62 93.71 221.21 93.71 221.21 84.01"/>
    <polygon class="fill-current text-white" points="254.03 29.44 245.37 29.44 245.37 65.9 244.84 65.9 244.06 62.93 234.87 29.44 226.48 29.44 226.48 93.71 235.13 93.71 235.13 57.24 235.66 57.24 236.45 60.22 245.63 93.71 254.03 93.71 254.03 29.44"/>
    <polygon class="fill-current text-white" points="257.71 29.44 257.71 39.14 266.64 39.14 266.64 93.71 276.08 93.71 276.08 39.14 285 39.14 285 29.44 257.71 29.44"/>
    <rect class="fill-current text-white" x="15" y="105.57" width="9.45" height="64.28"/>
    <polygon class="fill-current text-white" points="50.34 142.03 49.82 142.03 49.03 139.06 39.84 105.57 31.45 105.57 31.45 169.84 40.11 169.84 40.11 133.37 40.63 133.37 41.42 136.35 50.6 169.84 59 169.84 59 105.57 50.34 105.57 50.34 142.03"/>
    <path class="fill-current text-white" d="M85.25,107.06A11.77,11.77,0,0,0,78,104.87a11.1,11.1,0,0,0-11,7,17.36,17.36,0,0,0-1.57,6.91v37.87a17.55,17.55,0,0,0,1,7,11.75,11.75,0,0,0,3.32,4.72,9.6,9.6,0,0,0,6.73,2.18,9.38,9.38,0,0,0,7.35-3.76L85,169.84h5.59v-32H77.38v7.95h3.76v11.64a6.1,6.1,0,0,1-.35,2.35,2.77,2.77,0,0,1-2.8,2.37,2.56,2.56,0,0,1-1.84-.7,5.59,5.59,0,0,1-1.31-4V118.77a6.77,6.77,0,0,1,.35-2.36,2.92,2.92,0,0,1,2.8-2.36,2.68,2.68,0,0,1,1.92.7,5.8,5.8,0,0,1,1.23,4v9.88h9.44v-9.88A17.36,17.36,0,0,0,89,111.86,12.32,12.32,0,0,0,85.25,107.06Z"/>
    <polygon class="fill-current text-white" points="193.67 170.56 215.26 170.56 215.26 160.85 203.11 160.85 203.11 143.19 211.85 143.19 211.85 132.87 203.11 132.87 203.11 115.99 215.26 115.99 215.26 106.28 193.67 106.28 193.67 170.56"/>
    <polygon class="fill-current text-white" points="229.97 106.28 220.53 106.28 220.53 170.56 242.48 170.56 242.48 161.81 229.97 161.81 229.97 106.28"/>
    <polygon class="fill-current text-white" points="264.53 135.67 264.09 139.07 263.92 139.07 263.48 135.67 257.88 106.28 246.34 106.28 246.34 170.56 255.09 170.56 255.09 127.44 255.61 127.44 255.96 130.16 261.99 170.56 266.02 170.56 272.05 130.16 272.4 127.44 272.93 127.44 272.93 170.56 281.67 170.56 281.67 106.28 270.13 106.28 264.53 135.67"/>
    <rect class="fill-current text-white" x="114.06" y="134.77" width="58.33" height="7.29"/>
  </g>
</svg>